<?xml version="1.0" encoding="iso-8859-1"?>
<!-- Generator: Adobe Illustrator 15.0.0, SVG Export Plug-In . SVG Version: 6.00 Build 0)  -->
<svg version="1.2" baseProfile="tiny" id="&#x30EC;&#x30A4;&#x30E4;&#x30FC;_1"
	 xmlns="http://www.w3.org/2000/svg" xmlns:xlink="http://www.w3.org/1999/xlink" x="0px" y="0px" width="7000px" height="7000px"
	 viewBox="0 0 7000 7000" xml:space="preserve">
<path d="M1186.67,950.39C1221.86,973.03,1261.05,985,1300,985V865c-35.2,0-71.79-25.7-100.39-70.52
	c-37.8-59.23-58.61-146.64-58.61-246.14c0-124.6,43.99-198.54,80.9-238.63c32.31-35.1,66.41-52.5,87.17-58.83
	c8.2,11.21,17.85,28.18,20.69,37.28c0.28,22.69,2.24,117.33,5.12,255.13c2.4,114.99,5.12,245.32,5.12,256.7
	c0,14.33,4.06,30.54,13.15,52.56c6.27,15.2,14.74,32.42,23.84,48.5C1410.29,959.9,1439.6,985,1475,985
	c77.06,0,151.44-45.6,204.08-125.12c53.05-80.14,81.03-187.89,80.92-311.59c-0.1-111.91-20.76-209.01-59.71-280.8
	c-23.22-42.79-52.82-76.45-87.96-100.03C1573.32,141.28,1529,128,1479,128v120c50,0,87.78,25.1,115.79,76.72
	c29.05,53.54,45.13,132.97,45.21,223.68c0.09,98.6-21.57,185.7-60.98,245.24c-24.72,37.34-54.79,61.57-84.78,68.96
	c-4.29-6.2-9.82-14.97-16.14-26.66c-10.54-19.5-16.38-34.45-18.13-40.28c-0.29-23.15-2.25-117.58-5.11-254.87
	c-2.4-114.99-5.12-245.32-5.12-256.7c0-32.23-21.2-69.95-33.84-89.56c-28.85-44.77-58.82-66.54-91.62-66.54
	c-27.46,0-60.53,9.1-93.13,25.63c-35.15,17.82-68.87,43.69-97.53,74.81c-51.37,55.8-112.61,156.6-112.61,319.91
	c0,123.85,26.78,231.29,77.46,310.69C1123.31,897.99,1152.99,928.73,1186.67,950.39z"/>
<path d="M2635,597.19V350c0-38.67-10.29-98-39.16-148.52c-18.8-32.91-43.4-59.13-73.12-77.95C2487.6,101.28,2446.31,90,2400,90
	s-87.6,11.28-122.73,33.53c-29.71,18.82-54.31,45.04-73.12,77.95C2175.29,252,2165,311.33,2165,350v250.45l-171.43,202.97l39,39
	C2128.51,938.36,2248.7,985,2400,985c138.69,0,279.48-54.63,367.43-142.57l38.62-38.62L2635,597.19z M2308.34,261.02
	c19.89-34.81,49.01-51.02,91.66-51.02s71.77,16.21,91.66,51.02c18.43,32.25,23.34,71.11,23.34,88.98v281.56
	c-40.83,23.25-72.72,33.44-115,33.44c-41.3,0-81.56-9.51-115-26.43V350C2285,332.12,2289.92,293.27,2308.34,261.02z M2400,865
	c-97.85,0-175.78-22.89-241.04-71.42l50.52-59.82c18.86,11.36,39.31,21.07,60.82,28.81C2311.05,777.25,2355.9,785,2400,785
	c44.06,0,83.04-7.53,122.67-23.7c22.14-9.03,43.87-20.62,64.91-33.22l53.09,64.13C2575.23,837.37,2486.14,865,2400,865z"/>
<path d="M2569.34,3098.37C2517.68,3076.23,2460.7,3065,2400,3065c-63.6,0-120.73,10.9-169.78,32.39
	c-49.64,21.75-91.55,54.44-124.57,97.18C2045.5,3272.4,2015,3383.58,2015,3525c0,72.82,9.84,139.26,29.25,197.49
	c18.91,56.74,46.88,105.83,83.13,145.89c34.98,38.67,77.06,68.35,125.05,88.23c45.49,18.84,95.14,28.39,147.57,28.39
	c49.78,0,98.61-8.58,145.11-25.49c45.19-16.43,86.12-39.94,121.66-69.87c36.36-30.62,65.11-66.3,85.46-106.05
	c21.74-42.47,32.76-87.42,32.76-133.59h-120c0,54.33-26.82,106.84-75.52,147.86C2538.8,3840.53,2469.74,3865,2400,3865
	c-165.93,0-265-127.1-265-340c0-114.24,22.07-200.73,65.6-257.06c43.12-55.81,108.35-82.94,199.4-82.94
	c103.44,0,168.27,43.12,204.45,79.3c17.11,17.11,29.9,34.63,39.2,50.7H2575c-61.6,0-99.37,25.76-120.2,47.37
	c-26.04,27.02-40.98,64.14-40.98,101.84c0,68.86,47.8,120.79,111.18,120.79h250v-120h-241.18c-0.12-4.01,0.73-9.52,3.89-14.8
	c6.05-10.09,18.6-15.2,37.29-15.2h210v-60c0-60.66-37.56-137.42-95.7-195.55C2654.85,3145,2614.49,3117.72,2569.34,3098.37z"/>
<path d="M1662.01,1147.36c-35.61-24.37-76.56-44.62-118.42-58.57C1496.24,1073,1447.93,1065,1400,1065
	c-95.46,0-178.17,26.23-245.82,77.96c-58.3,44.58-103.68,106.74-134.89,184.75l111.42,44.57C1180.42,1248.01,1271.02,1185,1400,1185
	c65.54,0,135.62,21.89,192.29,60.06c34.55,23.27,54.41,45.88,64.39,61.43L1535,1419.16V1300h-120v230.27l-405.76,375.71l81.53,88.05
	L1415,1693.81V1975h120v-392.3l250-231.48V1325c0-32.04-12.88-65.36-38.27-99.02C1725.66,1198.05,1696.37,1170.87,1662.01,1147.36z"
	/>
<path d="M2375,1090v120c108,0,290,40.92,290,315c0,248.85-144.08,309.77-272.33,314.67L2135,1667.89V1125h-120v850h120v-162.89
	L2356.83,1960H2375c69.73,0,171.02-13.42,257.54-77.37c47.39-35.02,84.37-81.11,109.92-136.97
	c28.23-61.73,42.55-135.97,42.55-220.66C2785,1204.27,2573,1090,2375,1090z"/>
<path d="M5665,1670l-259,194.25c-36.56-2.72-105.39-14.67-164.66-63.63C5170.78,1742.33,5135,1649.6,5135,1525
	c0-292.28,241.1-315,315-315v-120c-61.16,0-178.82,11.3-279.75,87c-48.16,36.12-85.82,82.23-111.92,137.05
	C5029.58,1374.42,5015,1445.4,5015,1525c0,84.43,14.17,159.67,42.13,223.64c25.17,57.59,61.43,106.21,107.78,144.5
	c100.37,82.92,215.32,91.87,260.09,91.87h20l220-165v155h120v-850h-120V1670z"/>
<path d="M5632.54,2192.37c-86.52-63.95-187.81-77.37-257.54-77.37h-21.72L5135,2296.9V2125h-120v850h120v-521.9l261.15-217.62
	C5523.52,2241.34,5665,2303.4,5665,2550c0,292.28-241.1,315-315,315v120c61.16,0,178.82-11.3,279.75-87
	c48.16-36.12,85.82-82.23,111.92-137.05c28.75-60.38,43.33-131.35,43.33-210.95c0-84.69-14.31-158.93-42.55-220.66
	C5716.91,2273.48,5679.92,2227.4,5632.54,2192.37z"/>
<path d="M3160,1876.07L3359.7,1985h15.3c61.63,0,151.34-8.86,228.73-51.08C3675.02,1895.04,3760,1814.22,3760,1650
	c0-162.94-83.09-250.01-152.79-294.37c-36.64-23.32-78.7-40.88-125-52.2c-45.43-11.1-83.38-13.43-107.22-13.43h-17.47L3160,1415.7
	V1025h-120v950h120V1876.07z M3391.67,1410.51c44.41,2.64,103.11,15.81,151.12,46.36c65.41,41.63,97.21,104.8,97.21,193.13
	c0,85.76-30.66,144.17-93.73,178.58c-49.66,27.09-110.03,34.92-156.35,36.22L3160,1739.38v-181.45L3391.67,1410.51z"/>
<path d="M4641.42,1063.05c-57.97-31.89-130.79-48.05-216.42-48.05h-68.91L4185,1134.76V1025h-120v950h120v-434.76L4356.09,1660H4425
	c87.06,0,160.53-17.6,218.37-52.3c43.58-26.15,77.75-61.7,101.58-105.68c26.58-49.07,40.05-108.62,40.05-177.01
	C4785,1173.77,4706.92,1099.08,4641.42,1063.05z M4581.63,1504.8C4542.7,1528.16,4490,1540,4425,1540h-31.09L4185,1393.76v-112.52
	L4393.91,1135H4425c64.26,0,119.1,11.48,158.58,33.2c54.78,30.13,81.42,81.42,81.42,156.8
	C4665,1412.33,4637.73,1471.14,4581.63,1504.8z"/>
<path d="M6739.96,1217.18c-21.8-36.97-50.19-69.2-84.38-95.79c-68.46-53.25-156.84-81.39-255.59-81.39s-187.13,28.14-255.59,81.39
	c-34.18,26.59-62.57,58.82-84.38,95.79c-21.95,37.21-36.83,78.58-44.22,122.96l118.37,19.73C6154.73,1236.58,6256.58,1160,6400,1160
	c127.47,0,222.12,60.51,256.01,160.53L6360,1491.31V1225h-120v335.54l-232.28,134.01l8.44,42.22c8.07,40.34,27.5,78.05,57.74,112.08
	c25.57,28.76,58.26,54.2,97.18,75.6c68.94,37.92,154.51,60.55,228.92,60.55c62.55,0,154.1-8.05,235.06-46.4
	c81.96-38.82,133.4-99.97,148.77-176.83l-117.67-23.53c-7.75,38.74-35.5,69.66-82.48,91.92c-47.44,22.47-112.68,34.85-183.69,34.85
	c-92.3,0-206.79-47.49-250.15-113.91l90.15-52.01V1725h120v-95.15l431.02-248.67l-6.84-41.04
	C6776.79,1295.76,6761.91,1254.39,6739.96,1217.18z"/>
<path d="M757.89,2281.6c-18.13-44.37-44.77-83.34-79.19-115.85c-34.5-32.58-75.91-57.78-123.08-74.89
	C508.31,2073.7,455.95,2065,400,2065c-94.23,0-169.52,19.65-230.16,60.08c-50.62,33.75-89.86,80.8-123.51,148.09l107.33,53.67
	C196.23,2241.7,254.41,2185,400,2185c142.74,0,240.69,74.05,261.06,192.47C622.72,2352.61,576.96,2340,525,2340
	c-57.65,0-111.43,23.32-151.43,65.68C336.35,2445.09,315,2497.69,315,2550s21.35,104.91,58.57,144.32
	c40,42.35,93.78,65.68,151.43,65.68c47.71,0,91.06-13.35,128.84-39.68c2.57-1.79,5.1-3.64,7.61-5.54
	c-8.14,42.74-30.34,76.1-67.21,101.33C548.16,2847.64,479.18,2865,400,2865c-151.53,0-225.37-86.21-250.08-123.28l-99.85,66.56
	c33.02,49.53,79.01,91.77,133.01,122.14C247.47,2966.64,320.45,2985,400,2985c104.61,0,195.21-24.16,262.01-69.86
	c38.76-26.52,68.98-59.87,89.82-99.12C773.84,2774.56,785,2727.11,785,2675c0-37.33-3.26-86.05-15.91-134.56
	c10.27-37.7,15.91-77.5,15.91-115.44C785,2373.88,775.88,2325.63,757.89,2281.6z M628.8,2570.86C590.39,2640,541.17,2640,525,2640
	c-53.04,0-90-47.43-90-90c0-42.57,36.96-90,90-90c54.32,0,88.85,20.61,111.96,66.83c2.2,4.39,4.23,8.9,6.11,13.51
	C638.98,2550.79,634.25,2561.05,628.8,2570.86z"/>
<path d="M3400,2160c67.48,0,128.25,17.05,171.12,48.02c37.63,27.18,59.99,64.37,66.72,110.83L3535,2385.69V2350h-120v113.69
	l-247.7,161l65.4,100.61l182.3-118.5V2825h120v-296.19l225-146.25V2350c0-51.62-10.94-98.9-32.52-140.51
	c-20.12-38.79-49.08-72.02-86.1-98.76C3578.22,2065.12,3492.5,2040,3400,2040c-87.57,0-174.56,28.57-244.97,80.45
	c-75.43,55.58-124.87,133.6-139.22,219.69l118.37,19.73C3155.03,2234.76,3285.71,2160,3400,2160z"/>
<path d="M3400,2865c-97.8,0-223.91-23.82-269.29-137.28l-111.42,44.57c14.99,37.47,36.16,70.8,62.93,99.06
	c25.35,26.76,55.95,49.2,90.94,66.7C3235.49,2969.2,3311.8,2985,3400,2985s164.51-15.8,226.83-46.96
	c34.99-17.5,65.59-39.94,90.94-66.7c26.77-28.26,47.94-61.58,62.93-99.06l-111.42-44.57C3623.91,2841.18,3497.8,2865,3400,2865z"/>
<path d="M4575.49,2809.86C4524.28,2844.9,4460.31,2865,4400,2865c-64.5,0-129.86-16.42-179.31-45.05
	c-27.91-16.16-61.75-42.43-78.64-80.79l97.95-113.42V2725h120v-238.2l235.41-272.58l-90.82-78.43L4360,2303.2V2050h-120v392.15
	l-229.59,265.84l5.75,28.78c7.97,39.83,25.61,76.83,52.43,109.97c24.08,29.75,55.03,55.68,91.96,77.06
	c68.17,39.46,153.2,61.2,239.44,61.2c85.14,0,171.53-27.03,243.26-76.11c75.57-51.71,125.5-121.71,140.58-197.13l-117.67-23.53
	C4657.39,2732.1,4624.34,2776.43,4575.49,2809.86z"/>
<path d="M6596.69,2153.45c-44.39-25.51-93.75-38.45-146.69-38.45h-28.84l-200,250H6135v-265h-120v385h263.84l198.46-248.08
	c50.64,7.34,93.02,35.63,126.25,84.38c39.63,58.12,61.45,139.34,61.45,228.7c0,167-73.85,281.28-198.99,310.97l-353.53-282.82
	l-74.96,93.7l395.27,316.22l25.7-3.67c101.19-14.46,185.38-65.08,243.46-146.4c54.33-76.07,83.05-175.65,83.05-288
	c0-113.23-29.23-218.46-82.3-296.3C6673.44,2210.79,6637.78,2177.06,6596.69,2153.45z"/>
<path d="M1475,3140v120c68.51,0,115.01,29.18,146.33,91.83c28.97,57.95,43.67,141.44,43.67,248.17c0,180.79-84.21,265-265,265
	c-98.5,0-167.29-31.66-210.29-96.78c-39.19-59.35-48.98-134.4-50.29-186.91c-0.72-28.71,0.96-54.23,3.44-74.74
	c26.05,14.73,61.02,28.44,107.15,28.44c56.02,0,105.66-26.85,139.78-75.59c29.58-42.26,45.22-97.39,45.22-159.41
	c0-63.54-16.56-114.68-49.22-152.01c-33.19-37.94-80.15-57.99-135.78-57.99c-66.23,0-126.28,22.65-173.63,65.51
	c-34.61,31.32-50.6,62.58-53.46,68.52l108.18,51.93c0,0-0.11,0.24-0.34,0.69c0.09-0.18,9.35-17.94,29.2-34.86
	c24.75-21.1,55.04-31.8,90.05-31.8c30.59,0,41.79,12.8,45.47,17.01c12.78,14.6,19.53,39.84,19.53,72.99c0,57.15-22.33,115-65,115
	c-31.58,0-50.78-13.64-71.09-28.08c-11.65-8.28-23.71-16.85-38.26-22.09c-29.15-10.5-59.46-3.86-81.07,17.75
	c-9.77,9.77-20.05,24.71-29.02,67.42c-3.81,18.15-8.74,48.08-10.59,87.62c-2.79,59.85,1.23,148.95,36.27,233.55
	c26.52,64.04,66.47,114.82,118.74,150.94c60.38,41.73,136.09,62.89,225.02,62.89c134.43,0,236.08-39.78,302.14-118.23
	c54.98-65.29,82.86-155.04,82.86-266.77c0-125.52-18.95-227.07-56.33-301.83C1676.93,3194.69,1589.21,3140,1475,3140z"/>
<path d="M3717.6,3238.77C3652.01,3125.09,3542.19,3065,3400,3065c-64.13,0-123.29,15.48-175.84,46.01
	c-46.84,27.21-87.43,65.78-120.65,114.63c-56.25,82.72-88.51,191.83-88.51,299.36c0,142.4,19.45,242.32,61.2,314.44
	c20.46,35.35,46.29,64.37,78.94,88.73c26.63,19.87,57.64,36.56,97.58,52.54l44.57-111.42C3202.26,3831.28,3135,3784.34,3135,3525
	c0-82.82,25.32-169.51,67.74-231.89C3251.52,3221.38,3317.89,3185,3400,3185c99.62,0,169.5,37.2,213.65,113.73
	c35.14,60.91,46.77,134.28,50.13,187.77c-0.8-0.85-1.61-1.71-2.42-2.56c-43.95-45.75-98.24-68.95-161.36-68.95
	c-66.58,0-126.74,25.84-169.4,72.76c-42.92,47.21-65.6,111.96-65.6,187.24c0,85.36,21.15,160.09,61.18,216.12
	c43.24,60.54,104.97,93.88,173.82,93.88c49.78,0,101.77-22.12,146.39-62.28c39.26-35.33,69.64-81.06,85.53-128.75l-113.84-37.95
	C3599.07,3813.06,3542.79,3865,3500,3865c-37.21,0-61.96-23.72-76.18-43.62c-25.04-35.05-38.82-87.04-38.82-146.38
	c0-86.36,44.07-140,115-140c63.99,0,92.83,47.97,121.39,105.93c5.89,11.96,10.98,22.28,16.75,31.34
	c19.86,31.19,44.6,37.73,61.86,37.73h24.85l17.57-17.57C3785,3649.85,3785,3583.52,3785,3525c0-47.61-4.47-93.92-13.29-137.65
	C3760.42,3331.44,3742.22,3281.45,3717.6,3238.77z"/>
<path d="M4732.75,3543.44c-15.04-18.34-35.54-28.44-57.75-28.44h-43.25l-13.68,41.03c-0.1,0.3-10.52,30.72-30.5,60.69
	c-14.68,22.03-37.46,48.28-62.58,48.28c-74.39,0-90-62.54-90-115c0-66.43,48.48-90,90-90c48.04,0,82.7,32.56,83.04,32.89
	c-0.31-0.3-0.47-0.46-0.47-0.46l84.85-84.85c-6.92-6.92-70.38-67.57-167.43-67.57c-54.01,0-104.79,18.7-142.99,52.66
	c-21.16,18.81-37.67,41.58-49.09,67.67c-11.89,27.18-17.92,57.35-17.92,89.67c0,64.88,17.51,121.06,50.65,162.48
	c18.68,23.34,41.8,41.44,68.73,53.78c27.13,12.43,57.62,18.74,90.62,18.74c28.98,0,67-7.96,105.82-38.63
	C4596.99,3824.4,4506.49,3865,4425,3865c-108.83,0-184.27-29.17-230.65-89.19c-39.38-50.97-59.35-126.94-59.35-225.81
	c0-108.56,31.09-208.77,87.56-282.17C4276.05,3198.3,4347.94,3160,4425,3160c99.91,0,184.05,36.74,225.08,98.28l99.85-66.56
	c-31.16-46.74-77.47-85.37-133.92-111.71c-56.08-26.17-122.13-40-191-40c-58.85,0-115.19,14.23-167.45,42.3
	c-49.37,26.51-93.15,64.32-130.11,112.37C4054.93,3288.93,4015,3415.12,4015,3550c0,58.08,6.01,111.15,17.87,157.76
	c13.92,54.73,36.31,102.31,66.53,141.43c69.64,90.12,179.19,135.81,325.6,135.81c75.04,0,149.26-22.62,208.99-63.68
	c31.66-21.76,58.32-48,79.26-77.98c22.56-32.31,37.9-68.16,45.58-106.57c6.33-31.64,7.96-67.84,4.59-101.92
	C4759.39,3594.11,4749.07,3563.36,4732.75,3543.44z"/>
<path d="M2538.8,5112.88c-49.19-31.77-104.3-47.88-163.8-47.88c-102.18,0-192.77,59.49-255.1,167.52
	c-50.78,88.02-79.9,203.74-79.9,317.48c0,66.32,8.21,127.32,24.41,181.3c15.91,53.02,39.45,99.25,69.99,137.43
	c59.98,74.98,145.43,116.27,240.6,116.27c52.13,0,100.72-9.53,144.41-28.32c45.34-19.5,84.68-48.63,116.93-86.57
	c32.35-38.06,57.15-84.61,73.73-138.37c16.54-53.65,24.93-114.8,24.93-181.74c0-116.05-30.58-232.3-83.9-318.95
	C2620.16,5180.78,2582.38,5141.02,2538.8,5112.88z M2544.91,5792.39c-40.95,48.18-98.12,72.61-169.91,72.61
	c-58.82,0-109.62-24.63-146.9-71.23c-44.55-55.69-68.1-139.99-68.1-243.77c0-91.95,23.87-188.22,63.85-257.52
	c28.29-49.03,77.48-107.48,151.15-107.48c70.9,0,129.41,36.65,173.9,108.95c42.01,68.26,66.1,161.59,66.1,256.05
	C2615,5654.63,2590.76,5738.45,2544.91,5792.39z"/>
<rect x="290" y="6175" width="120" height="275"/>
<rect x="290" y="6575" width="120" height="275"/>
<path d="M1400,6200c-50,0-75,100,0,100S1450,6200,1400,6200z"/>
<path d="M1400,6750c-50,0-75,125,0,125C1525,6875,1500,6750,1400,6750z"/>
<path d="M3401,6109c-25,0-26,141-1,141s100,0,100-75C3500,6150,3426,6109,3401,6109z"/>
<rect x="4215" y="6075" width="120" height="825"/>
<path d="M5710.44,6321.45c-0.67-13.19-1.59-26.3-2.82-39.16c-8.19-85.41-28.28-141.85-63.24-177.61
	C5619,6078.72,5586.37,6065,5550,6065c-25.37,0-51.15,9.69-76.63,28.8c-18.62,13.97-37,33.09-53.15,55.29
	c-35.1,48.26-55.23,103.26-55.23,150.92c0,45.4,17.49,83.73,50.58,110.86c38.46,31.53,95.67,46.25,175.61,44.39
	c-0.09,4.29-0.19,8.52-0.28,12.66c-0.47,20.61-0.91,40.08-0.91,57.09c0,53.56-16.71,145.78-53.4,221.7
	c-25.42,52.6-68.68,115.04-131.63,118.18c-2.91-7.88-6.57-26.09-3.85-57.16c0.63-7.17,1.52-14.07,2.58-20.55
	c1.11-1.76,2.2-3.51,3.27-5.25c27.09-44.06,30.82-63.65,30.82-78.26c0-14.16-4.33-27.47-12.52-38.5
	c-11.88-15.99-30.2-25.16-50.26-25.16c-15.28,0-43.91,5.59-64.05,43.05c-6,11.16-11.44,25.2-16.17,41.71
	c-1.49,5.2-2.87,10.53-4.15,15.97c-10.03,14.7-22.3,31.38-36.23,48.4c-44.52,54.39-72.98,72.69-81.71,75.84
	c-9.4-0.19-14.4-1.51-16.6-2.31c-1.42-5.78-4.29-29.88,20.89-93.19c21.29-53.53,53.94-113.41,80.18-161.52
	c15.65-28.69,29.16-53.47,38.48-73.39c6.08-13.01,10.05-23.26,12.5-32.27c10.02-36.98-5.54-59.56-15.7-69.72
	c-9.58-9.58-26.81-21.25-54.49-22.49c-11.62-0.52-24.36,0.77-38.96,3.95c-20.56,4.47-44.98,12.74-72.61,24.58
	c-32.38,13.88-93.84,44.02-118.79,68.97l84.85,84.85c-0.41,0.41-0.65,0.62-0.65,0.62c4.83-4.23,24.74-16.93,53.87-31.26
	c-27.38,50.3-59.67,110.66-82,167.96c-21.51,55.2-45.99,135.52-10.4,195.46c16.19,27.27,50.46,59.78,121.74,59.78
	c30.86,0,63.33-14.5,99.26-44.34c8.09-6.72,16.02-13.94,23.63-21.33c0.64,1.33,1.3,2.65,1.97,3.95
	c20.41,39.22,56.9,61.72,100.13,61.72c55.83,0,107.07-19.96,152.28-59.32c35.62-31,66.69-73.66,92.36-126.77
	c48.24-99.82,65.35-209.94,65.35-273.91c0-15.66,0.42-34.46,0.88-54.38c0.2-8.88,0.41-18.11,0.59-27.61
	c16.14-2.64,32.9-5.7,50.3-9.18l-23.53-117.67C5728.7,6318.07,5719.44,6319.83,5710.44,6321.45z M5586.98,6335.32
	c-65.47,1.33-88.46-11.64-95.32-17.27c-2.81-2.3-6.66-5.46-6.66-18.05c0-19.65,10.4-47.59,27.14-72.93
	c16.86-25.52,33.67-38.69,40.46-41.93c2.37,0.32,3.85,1.25,5.98,3.42c6.51,6.65,22.41,30.22,29.6,105.17
	c1.29,13.41,2.18,27.35,2.78,41.49C5589.62,6335.26,5588.3,6335.3,5586.98,6335.32z"/>
<path d="M108.12,905.18C170.71,958.14,268.92,985,400,985c171.36,0,259.75-85.21,303.73-156.68C758.37,739.5,759,650.88,759,650V370
	c0-13.06-2.91-37.14-11.09-65.55c-10.63-36.94-26.99-71.1-48.64-101.54C654.23,139.6,564.98,64.13,395.5,64.13
	c-105.21,0-181.74,21.2-233.96,64.83c-18.6,15.54-27.79,38.46-24.58,61.31c1.55,11,6.73,27.16,22.61,41.65
	c5.49,5.01,11.77,9.44,19.78,13.94c9.85,5.54,21.29,10.6,34.53,16.45c27.47,12.14,64.67,28.59,91.09,52.7H100v120h225
	c24.33,0,45.69-4.35,63.47-12.93c22.44-10.83,38.98-28.08,47.83-49.89c17.68-43.58,1.04-96-44.5-140.23
	c-18.4-17.87-38.85-32.38-58.95-44.33c18.78-2.33,39.68-3.5,62.65-3.5c90.6,0,157.87,27.06,200.06,80.44L40,747.66V775
	C40,810.07,57.89,862.68,108.12,905.18z M639,385.82v264.01c-0.07,1.78-3.06,60.79-38.55,117.33C559.7,832.08,492.26,865,400,865
	c-122.87,0-182.46-26.39-210.81-48.54c-9.76-7.62-16.27-15.1-20.6-21.59L639,385.82z"/>
<path d="M400,1090c-81.99,0-153.06,3.2-192.43,42.57c-20.81,20.81-30.5,50.63-28.77,88.61c2.18,48.17,22.76,108.77,57.95,170.65
	c26.81,47.15,74.57,116.53,149.84,179.26c63.96,53.3,135.89,85.4,213.78,95.41c19.92,2.56,38.61,3.46,55.75,3.38
	c-7.28,45.06-18.97,84.16-34.78,115.78c-11.27,22.55-28.85,49.42-53.97,66.57c-39.37-46.92-105.79-125.52-124.94-144.67L400,1665.15
	l-42.43,42.43c-9.06,9.06-26.19,29.19-78.78,105.15c-9.88,14.27-19.42,28.22-27.65,40.33c-33.21-18.3-56.05-49.55-70.45-75.72
	C151.23,1723.76,135,1651.9,135,1575c0-34.67,6.41-80.23,16.72-118.92c10.92-40.95,26.14-74.09,40.7-88.66l-84.85-84.85
	c-30.56,30.56-54.72,78.53-71.8,142.59C22.77,1473.95,15,1529.96,15,1575c0,48.02,5.11,94.6,15.2,138.45
	c10.3,44.77,25.56,85.72,45.35,121.72c21.19,38.53,47.19,70.65,77.27,95.48c33,27.24,70.15,45.13,110.41,53.19l39.4,7.88
	l22.29-33.43c19.86-29.79,52.2-77.22,78.38-114.08c31.68,36.95,72.21,85.14,100.6,119.21l24.11,28.93l36.54-9.13
	c68.92-17.23,125.67-66.98,164.11-143.88C766.05,1764.57,785,1667.23,785,1550c0-129.82-31.08-240.49-89.87-320.04
	C627.45,1138.4,525.4,1090,400,1090z M463.41,1478.91c-54.1-45.08-101.2-103.84-132.64-165.46c-13.05-25.57-22.73-50.48-27.99-72.04
	c-2.62-10.74-3.7-18.94-4.05-24.68c6.22-1.57,16.1-3.41,31.19-4.72c23.03-2,49.12-2,70.08-2c87.02,0,153.85,30.71,198.62,91.29
	c43.37,58.68,66.32,144.55,66.38,248.35C611.65,1551.51,537.87,1540.96,463.41,1478.91z"/>
<path d="M3459,835V350h-120v359.19c-43.04-4.78-102.45-11.85-157.29-18.72l-67.71-8.45V750c0,66.19,17.11,121.62,50.35,164.75
	c23.38,30.34,54.66,53.83,92.46,69.81c39.93,16.88,88.02,25.44,142.93,25.44c43.95,0,83.63-7.39,117.93-21.96
	c33.44-14.21,61.8-35.13,84.28-62.19c37.56-45.21,57.41-106.01,57.41-175.84h-120c0,92.9-46.98,140-139.63,140
	c-94.46,0-135.82-31.13-153.27-70.71C3309.97,826.91,3381.51,835,3399,835H3459z"/>
<path d="M3703.82,271.91c-42.38-41.12-96.45-73.28-144.15-101.66c-45.16-26.87-91.86-54.65-111.71-81.05L3400,25.41l-47.96,63.78
	c-21.22,28.22-63.25,57.97-107.74,89.47c-45.61,32.29-92.77,65.67-130.85,106.13C3064.03,337.3,3040,391.54,3040,450.63
	c0,53.31,10.79,94.39,32.98,125.59c19.4,27.27,57.18,59.79,127.02,59.79h125l-0.03-120H3200c-22.59,0-27.41-6.78-29.23-9.34
	c-4.02-5.66-10.77-20.46-10.77-56.04c0-65.26,78.1-120.55,153.64-174.02c31.27-22.14,61.5-43.54,87.7-66.39
	c28.66,22.52,62.24,42.49,96.98,63.16C3599,333.27,3665,377.96,3665,450.5c0,43.61-25.64,65.5-40,65.5h-150v120h150
	c42.56,0,84.27-20.31,114.44-55.71c29.38-34.49,45.56-80.58,45.56-129.79c0-35.81-7.98-70.07-23.72-101.84
	C3747.79,321.44,3729,296.34,3703.82,271.91z"/>
<path d="M5792.28,380.45l-8.44-42.22c-15.44-77.18-61.59-146.87-129.96-196.25C5584.15,91.62,5496.36,65,5400,65
	c-49.24,0-97.02,8.5-142.03,25.26c-41.98,15.63-80.72,38.1-115.13,66.78c-32.74,27.28-60.42,59.18-82.27,94.8
	c-21.79,35.52-36.73,73-44.41,111.4l117.67,23.53C5153.4,288.96,5253.33,185,5400,185c117.86,0,215.83,54.67,253.34,137.08
	L5015,690.35V725c0,42.35,10.78,81.23,32.03,115.57c20.47,33.07,50.26,61.08,88.53,83.23c70.14,40.61,167.52,61.2,289.44,61.2
	c91.54,0,181.06-29.91,252.07-84.21C5744.65,849.11,5785,783.39,5785,725h-120c0,11.08-14.87,45.32-60.82,80.46
	C5575.1,827.7,5513.16,865,5425,865c-99.11,0-178.41-15.58-229.31-45.05c-29.77-17.23-48.1-37.67-56.06-62.97L5792.28,380.45z"/>
<path d="M4625,193h-25.54l-17.7,18.47c0,0-7.62,7.98-21.05,21.95c-12.53-28.46-27.47-53.85-44.69-75.93
	c-56.02-71.83-136.3-110.33-238.61-114.43c-42.54-1.71-89.21,9.19-134.97,31.52c-32.86,16.03-64.58,37.71-84.86,58l-19,19
	l1.52,26.83c0.56,9.82,4.19,28.5,22.25,43.34c0.41,0.33,1.01,0.82,1.8,1.46c1.13,0.91,2.79,2.23,4.92,3.92
	c31.37,24.96,56.59,45.7,76.87,62.88H4025v120h250c29.44,0,54.41-17.04,63.62-43.42c14.48-41.46-17.15-75.5-32.35-91.86
	c-13.72-14.76-32.45-32.54-57.27-54.34c-15.94-14.01-32.52-28.01-47.88-40.74c22.5-10.19,47.96-17.62,71.48-16.68
	c67.26,2.7,114.54,24.41,148.8,68.33c19.75,25.33,35.28,58.27,46.53,98.6c-47.2,49.08-104.19,108.33-161.17,167.59
	c-68.75,71.49-137.5,142.98-189.07,196.6l-84.39,87.78c-4.53,4.71-18.3,19.06-18.3,43.2c0,59.73,31.37,106.86,88.32,132.73
	C4144.2,976.35,4198.76,985,4275,985c42.33,0,87.22-15.57,129.82-45.02c37.09-25.64,72.88-62.05,103.51-105.29
	C4572.94,743.48,4610,630.61,4610,525.02c0-57.67-3.85-110.49-11.48-157.8c16.97-17.64,31.53-32.79,42.88-44.59
	c1.6,2.88,3.42,6.78,5.33,12.04c12.3,33.86,18.27,96.2,18.27,190.58c0,110.38-32.93,200.7-60.55,257.03
	c-35.26,71.9-72.2,109.28-81.67,114.76c0.01-0.01,0.14-0.08,0.39-0.2l53.67,107.33c41.87-20.93,92.87-83.97,133.09-164.49
	c34.25-68.56,75.08-178.77,75.08-314.46c0-113.11-7.62-182.39-25.48-231.57C4729.34,210.51,4669.71,193,4625,193z M4410.41,765.33
	C4367.52,825.88,4314.37,865,4275,865c-56.92,0-97.99-5.54-122.07-16.48c-4.91-2.23-8.48-4.36-11.07-6.45
	c59.21-61.59,219.13-227.87,347.29-361.14c0.57,14.23,0.85,28.92,0.85,44.07C4490,606.34,4460.99,693.93,4410.41,765.33z"/>
<path d="M6665,625c0,31.28-0.82,59.01-2.48,83.41c-38.98-43.88-91.4-101.36-156.01-171.07
	c-117.64-126.93-236.82-252.41-238.01-253.66l-87,82.65c1.08,1.14,109.68,115.49,221.52,235.9
	c129.98,139.95,190.76,208.85,219.17,242.66c-12.57,10.25-32.75,17.31-70.85,19.44l-238.17-267.94l-190.85,349.89l105.35,57.46
	l109.15-200.11L6498.06,985H6525c72.67,0,153.85-9.67,205.07-81.38c11.07-15.5,20.27-33.09,27.79-53.62h2.14
	c0-1.83-0.08-3.62-0.23-5.39C6777.38,793.3,6785,724.12,6785,625c0-71.29-21.51-143.53-63.93-214.7
	c-38.22-64.13-91.43-124.24-158.14-178.66c-63.59-51.88-138.02-96.63-215.25-129.44c-81.18-34.48-162.83-55.33-242.69-61.99
	l-9.96,119.59C6377.35,183.32,6665,418.1,6665,625z"/>
<path d="M2308.56,2237.06l-21.13-118.13c-77.79,13.91-148.14,66.03-198.08,146.74c-23.71,38.32-42.15,81.89-54.8,129.51
	c-12.98,48.86-19.56,100.94-19.56,154.81c0,61.99,8.71,118.86,25.89,169.04c17.5,51.13,43.76,95.4,78.05,131.6
	C2186.72,2922.18,2283.91,2960,2400,2960h60v-60c0-58.63-0.35-283.28-0.63-463.8c-0.12-76.05-0.23-145.99-0.3-194.84
	c52.64,12.04,93.71,41.27,124.62,88.42c36.31,55.38,56.3,133.59,56.3,220.23c0,85.99-12.59,154.76-37.42,204.42
	c-25.18,50.36-60.91,77.81-112.45,86.4l19.73,118.37c46.23-7.71,87.21-25.43,121.8-52.68c31.8-25.05,58.12-58.17,78.25-98.42
	c33.23-66.47,50.08-153.3,50.08-258.08c0-109.75-26.97-211.33-75.95-286.02C2620.15,2166.52,2521.58,2115,2399,2115h-60v60
	c0,20.76,0.17,132.27,0.37,261.38c0.21,138.71,0.47,303.48,0.58,398.89C2207.21,2813.14,2135,2713.79,2135,2550
	c0-83.85,20.03-162.4,56.4-221.18C2223.16,2277.48,2264.78,2244.89,2308.56,2237.06z"/>
<path d="M1100.63,2677.09c-27.31,20.58-53.1,40.02-68.56,55.49l-22.71,22.71l6.3,31.49c15.87,79.36,64.2,135.22,143.63,166.04
	c57.37,22.26,131.61,32.19,240.71,32.19c100.42,0,174.26-11.43,232.4-35.97c39.9-16.85,72.74-40.27,97.61-69.61
	c27.77-32.77,45.79-72.99,53.55-119.55l-118.37-19.73c-4.51,27.08-14.23,48.51-30.19,65.62v-355.9l129.26-129.26l-5.08-30.46
	c-14.38-86.26-63.72-155.02-142.69-198.85c-59.6-33.07-136.57-51.29-216.74-51.29c-57.39,0-142.28,9.53-220.79,54.94
	c-37.95,21.95-70.68,50.2-97.26,83.96c-29.01,36.84-50.84,80.45-64.89,129.62l115.38,32.97c2.07-7.24,4.35-14.2,6.81-20.89v327.05
	C1127.5,2656.84,1113.14,2667.66,1100.63,2677.09z M1633.59,2281.56L1515,2400.15v457.35c-32.06,5.06-69.94,7.5-115,7.5
	c-92.3,0-154.99-7.65-197.29-24.06c-28.36-11-47.03-25.55-58.39-46.3c9.28-7.2,19.41-14.83,28.55-21.72
	c27.31-20.58,53.1-40.02,68.56-55.49l17.57-17.57v-511.37c49.4-23.05,102.12-28.48,140.75-28.48
	C1446.76,2160,1593.97,2169.3,1633.59,2281.56z"/>
<path d="M684.23,3491.7c0.03,0.13,0.77,3.31,0.77,8.3H565c0,19.04,6.76,36.79,30.22,95.43c25.57,63.93,68.03,170.08,69.73,226.18
	c-6.04,5.41-33.38,24.29-129.07,35.06C461.89,3865,379.51,3865,325,3865c-78.57,0-125.62-104.69-151.26-192.52
	c-4.81-16.46-9.03-32.99-12.76-49.2c13.72,2.94,27.64,4.41,41.58,4.41c23.39,0,46.86-4.13,69.6-12.36
	c45.78-16.57,87.24-49.51,116.76-92.73C419.07,3478.45,435,3427.42,435,3375c0-71.61-11.59-131.1-34.46-176.83
	c-16.39-32.78-38.63-58.69-66.09-77C303.43,3100.49,266.6,3090,225,3090c-48.76,0-100.87,21.47-142.99,58.91
	C39.43,3186.76,15,3232.72,15,3275h120c0,0.4-0.02,0.62-0.03,0.65c0.63-5.08,8.9-22.03,29.37-39.31
	c19.53-16.49,42.21-26.34,60.66-26.34c22.26,0,90,0,90,165c0,55.41-35.98,110.22-83.68,127.5c-38.34,13.88-70.34-2.17-93.72-23.53
	c-1.98-19.78-2.66-31.79-2.68-32.15L75,3450l-59.92,3.15c0.27,5.13,7.03,127.07,42.91,251.03c22.03,76.11,50.74,137.67,85.33,183
	c22.62,29.64,48.21,52.93,76.06,69.21C251.85,3975.37,287.39,3985,325,3985c62.43,0,166.92,0,255.67-13.15
	c53.69-7.96,95.09-19.58,126.54-35.53C774.89,3902.01,785,3851.85,785,3825c0-72.24-37.07-170.89-78.37-274.13
	C697.48,3527.97,686.08,3499.49,684.23,3491.7z"/>
<path d="M600,3360c51.79,0,96.65-36.82,109.1-89.54c12.06-51.09-10.95-100.97-57.27-124.13c-12.03-6.01-24.72-9.06-37.72-9.06
	c-32.98,0-62.57,19.42-81.19,53.28c-11.94,21.71-18.79,48.43-18.79,73.29c0,21.84,5.33,41.77,15.42,57.65
	C545.1,3345.96,570.77,3360,600,3360z M592.28,3243.01c0.71-0.94,3.77-3.01,7.72-3.01c12.68,0,23.01,7.01,28.9,14.31
	c-3.96,1.69-8.96,2.96-14.79,2.96c-5.63,0-11.29-1.28-15.94-3.6C594.83,3252,591.71,3245.72,592.28,3243.01z"/>
<path d="M659,4560.29V4100H539v239.71l-425-275V4300c0,250.34,105.38,418.46,193.79,515.42c47.62,52.22,103.72,98.44,162.23,133.64
	c50.29,30.26,100.8,51.48,142.21,59.77l23.53-117.67c-27.4-5.48-66.24-22.27-103.88-44.92c-48.7-29.3-95.53-67.91-135.42-111.67
	C322.35,4653.29,234,4511.91,234,4300v-14.71L659,4560.29z"/>
<path d="M1573.17,4846.33c-25.47,12.74-64.61,18.67-123.17,18.67c-99.11,0-178.41-15.58-229.31-45.05
	c-41.4-23.97-60.69-54.14-60.69-94.95c0-22.22,19.34-63.16,73.61-111.41c51.35-45.64,118.91-84.52,185.36-106.67l-0.23-0.68
	c45.41-7.88,87.46-27.97,121.39-58.51c44.4-39.96,69.86-93.8,69.86-147.72c0-64.39-24-123.85-67.57-167.43
	C1498.85,4089,1439.39,4065,1375,4065s-123.85,24-167.43,67.57C1164,4176.15,1140,4235.61,1140,4300c0,33.01,6.3,63.5,18.74,90.62
	c12.34,26.93,30.44,50.05,53.78,68.73c4.27,3.41,8.7,6.65,13.27,9.73c-25.75,16.93-50.02,35.37-71.9,54.82
	c-33.37,29.66-60,60.42-79.15,91.44c-23.05,37.31-34.73,74.21-34.73,109.65c0,42.35,10.78,81.23,32.03,115.57
	c20.47,33.07,50.26,61.08,88.53,83.24c70.14,40.61,167.52,61.2,289.44,61.2c78.95,0,133.49-9.66,176.83-31.33
	c54.3-27.15,90.09-73.95,106.38-139.11l-116.42-29.11C1606.95,4824.8,1589.22,4838.31,1573.17,4846.33z M1375,4185
	c66.64,0,115,48.36,115,115c0,42.48-49.18,90-115,90c-52.46,0-115-15.61-115-90C1260,4233.36,1308.36,4185,1375,4185z"/>
<path d="M3607.43,4530.69l-57.35,86.03c-0.07,0.1-8.31,11.33-23.58,22.78c-22.56,16.92-48.3,25.5-76.5,25.5
	c-83.38,0-140-17.63-173.12-53.89c-36.24-39.68-50.51-107.63-42.45-201.99c34.67-44.81,72.29-80.39,101.97-105.24
	C3453.68,4205.73,3577.95,4160,3625,4160v-120c-44.34,0-104.63,16.62-169.78,46.79c-67.98,31.49-135.7,74.74-195.84,125.07
	c-71.38,59.74-128.53,126.13-169.88,197.34c-49.44,85.15-74.51,174.58-74.51,265.8c0,51.13,10.72,98.22,31.86,139.99
	c19.37,38.27,47.07,71.34,82.32,98.3c59.6,45.58,140.08,71.71,220.82,71.71c54.87,0,111.83-17.88,164.72-51.72
	c47.08-30.12,88.4-71.61,116.35-116.83c18.97-30.7,31.14-61.72,36.17-92.22c6-36.36,1.3-71.3-13.58-101.06L3607.43,4530.69z
	 M3350,4865c-74.36,0-215-39.71-215-190c0-20.59,1.72-40.57,4.88-59.91c12.17,29.25,28.36,55.01,48.39,76.94
	c57.13,62.56,142.74,92.97,261.73,92.97c21.15,0,41.89-2.63,61.89-7.77C3473.8,4823.87,3411.8,4865,3350,4865z"/>
<path d="M4429.42,4606.79c-36.71-28.66-44.42-87.49-44.42-131.79c0-65.25,46.74-95.66,66.83-105.71
	c39.08-19.54,83.11-18.08,112.17,3.71l72-96c-33.73-25.29-74.82-39.56-118.85-41.25c-40.43-1.55-81.58,7.51-118.98,26.21
	c-38.46,19.23-71.02,47.75-94.18,82.49c-25.5,38.25-38.98,83.4-38.98,130.55c0,47.05,6.58,89.17,19.55,125.19
	c15.21,42.22,39.1,76.27,71.02,101.19c39.79,31.06,89.79,46.63,149.39,46.63c9.17,0,18.58-0.37,28.21-1.11
	c-4.98,22.52-12.7,41.27-23.24,56.6c-28.45,41.38-80.76,61.49-159.93,61.49c-50.44,0-215-17.31-215-240
	c0-285.33,172.98-437.24,226-477l-72-96c-39.89,29.92-116.13,96.43-178.59,205.73C4047.1,4368.52,4015,4492.08,4015,4625
	c0,61.33,10.08,116.76,29.96,164.75c18.69,45.14,45.94,83.7,80.97,114.61c58.93,52,138.51,80.63,224.07,80.63
	c61.54,0,115.05-10.26,159.05-30.49c41.42-19.04,74.99-46.98,99.77-83.02c34.44-50.1,51.18-114.37,51.18-196.49v-76.85l-74.55,18.64
	C4535.96,4629.17,4468.71,4637.47,4429.42,4606.79z"/>
<path d="M5015,4500c0,121.4,39.67,231.18,114.72,317.5c69.44,79.86,166.51,137.16,280.72,165.71l29.11-116.42
	C5248.85,4819.12,5135,4682,5135,4500c0-75.67,20.91-133.6,47.44-176.67c2.6,4.26,5.25,8.45,7.93,12.57
	c28.85,44.24,61.69,79.35,97.61,104.36c42.64,29.69,88.74,44.74,137.02,44.74c63.54,0,114.68-16.56,152.01-49.22
	c37.94-33.19,57.99-80.15,57.99-135.78c0-64.39-24-123.85-67.57-167.43C5523.85,4089,5464.39,4065,5400,4065
	c-40.15,0-84.15,9.79-127.22,28.32c-16.23,6.98-32.2,15.17-47.69,24.41c-6.72-24.9-12.02-50.5-15.69-76.21l-118.79,16.97
	c6.89,48.2,18.73,96.36,34.53,141.7c-29.63,33.16-53.72,70.54-71.82,111.51C5027.89,4369.26,5015,4432.62,5015,4500z M5400,4185
	c66.64,0,115,48.36,115,115c0,30.59-12.8,41.79-17.01,45.47c-14.6,12.78-39.84,19.53-72.99,19.53
	c-59.83,0-105.96-51.47-134.12-94.65c-7.77-11.92-15.16-24.7-22.11-38.18C5318.06,4197.91,5367.95,4185,5400,4185z"/>
<path d="M6400,4840c-81.84,0-146.41-11.54-191.92-34.29c-30.26-15.13-50.95-34.49-63.34-59.67L6635,4353.84V4325
	c0-37.72-5.82-71.93-17.31-101.68c-11.77-30.49-29.45-56.5-52.56-77.29c-40.73-36.65-97.83-56.03-165.14-56.03
	c-72.66,0-136.47,37.36-177.21,68.69c-23.76,18.28-45.95,39.36-64.24,60.61c-11.93-20.06-20.67-40.16-25.35-58.86l-116.42,29.11
	c14.03,56.11,47.9,115.34,95.37,166.77c44.61,48.33,97.04,84.99,143.86,100.6l37.95-113.84c-16.32-5.44-35.65-16.91-55.05-32.26
	c11.6-15.68,31.04-37.01,57.03-57.01c36.73-28.25,73.68-43.81,104.04-43.81c25.93,0,61.7,4.38,84.86,25.22
	c15.29,13.76,24.81,34.64,28.45,62.29L6009,4700.96l7.16,35.81c8.02,40.09,24.46,75.75,48.86,105.99
	c22.97,28.46,53.04,52.11,89.39,70.28c62.32,31.16,144.95,46.96,245.58,46.96c103.99,0,197.09-35.9,269.25-103.81
	c54.89-51.66,96.43-121.51,113.96-191.64l-116.42-29.1C6647.8,4711.42,6570.23,4840,6400,4840z"/>
<path d="M2089.24,4548.65c-32.84,33.54-49.49,67.64-49.49,101.35c0,47.72,23.54,91.91,69.96,131.36
	c32.94,27.99,77.6,54.01,136.54,79.55c100.93,43.74,222.44,76.8,320.07,103.36c24.14,6.57,46.94,12.77,66.7,18.42l32.97-115.38
	c-20.49-5.85-43.65-12.15-68.16-18.82c-93.93-25.56-210.83-57.36-303.86-97.68c-47.25-20.48-83.1-40.96-106.55-60.89
	c-9.86-8.38-26.1-24.12-27.56-37.94c3.93-8.96,26.1-36.67,91.62-76.5c39.6-24.07,84.16-45.76,117.06-59.21
	c92.4,50.19,266.05,108.54,287.54,115.68l78.93,26.24V4250h-120v240.4c-29.17-10.65-61.47-22.88-92.3-35.39
	c4.03-3.82,7.92-7.83,11.65-12.02c33.96-38.2,52.66-88.98,52.66-142.99c0-53.11-17.85-108.12-48.98-150.92
	c-39.44-54.22-96.62-84.08-161.02-84.08c-64.39,0-123.85,24-167.43,67.57C2166,4176.15,2142,4235.61,2142,4300
	c0,33.01,6.3,63.5,18.74,90.62c12.18,26.57,29.97,49.43,52.87,67.97c-12.39,7-24.72,14.34-36.74,21.95
	C2140.36,4503.64,2110.88,4526.55,2089.24,4548.65z M2377,4185c26.08,0,47.01,11.34,63.98,34.67
	c16.05,22.07,26.02,52.85,26.02,80.33c0,38.38-20.15,82.71-75.68,89.19l-8.08-5.39l-17.8,5.93
	c-49.65-2.31-103.44-20.75-103.44-89.73C2262,4233.36,2310.36,4185,2377,4185z"/>
<path d="M292.62,5529.87c24.17-22.52,50.15-46.75,75.52-74.68c24.49,25.26,47.54,47.3,73.55,64.85
	C482.09,5547.3,524.13,5560,574,5560c58.89,0,110.67-24.87,145.8-70.04c29.31-37.68,45.45-87.39,45.45-139.96
	s-16.14-102.28-45.45-139.96C684.67,5164.87,632.89,5140,574,5140c-47.6,0-100.77,25.45-158.05,75.64
	c-21.52,18.86-41.38,39.26-57.73,57.96C280.14,5198.9,200.11,5140,125,5140c-18.57,0-36.17,7.58-49.54,21.35
	c-18.94,19.5-28.66,49.49-34.66,106.98c-3.72,35.68-5.92,81.47-6.72,139.99c-1.41,102.9,1.98,219.24,4.22,296.23
	c0.72,24.67,1.32,45.42,1.57,59.3c-0.08,3.69-0.13,7.4-0.13,11.15c0,93.71,46.63,158.78,134.85,188.17
	C240.11,5985,321.33,5985,399.88,5985c106.49,0,170.89-9.78,222.27-33.75c31.62-14.75,57.88-34.83,80.29-61.39
	c20.71-24.56,38.12-54.84,53.21-92.57l-111.42-44.57c-24.12,60.31-49.25,78.79-72.81,89.78c-33.81,15.77-85.11,22.5-171.54,22.5
	c-68.98,0-140.3,0-187.35-15.67c-38.97-12.98-52.78-32.43-52.78-74.33H160c0-3.03-0.04-6.61-0.1-10.71
	C163.11,5650.59,217.79,5599.61,292.62,5529.87z M495.05,5305.89c38.65-33.87,66.69-45.89,78.95-45.89
	c21.96,0,38.67,7.76,51.08,23.71c12.82,16.48,20.17,40.64,20.17,66.29s-7.35,49.8-20.17,66.29C612.67,5432.24,595.96,5440,574,5440
	c-49.59,0-74.35-20.92-131.35-80.48C455.84,5343.82,474.2,5324.15,495.05,5305.89z M153.91,5497.23
	c-0.18-23.03-0.22-46.09-0.04-68.55c0.41-51.81,1.92-94.88,4.49-127.99c0.89-11.52,1.86-21.09,2.82-29.02
	c13.48,6.92,30.85,17.84,52.82,34.99c23.85,18.63,47.94,40.6,70.26,62.33c-23.45,26.5-48.71,50.04-73.45,73.1
	C191.75,5459.85,172.39,5477.89,153.91,5497.23z"/>
<path d="M1564.71,5496.19c-45.74-35.19-107.31-56.19-164.71-56.19c-50.53,0-101.55,17.14-139.96,47.01
	c-45.17,35.13-70.04,84.13-70.04,137.99c0,97.93,33.86,174.68,100.64,228.1c5,4,10.11,7.81,15.31,11.44
	C1189.44,5858.75,1135,5798.11,1135,5675c0-236,122.04-490,390-490v-120c-81.96,0-157.72,18.29-225.17,54.36
	c-62.34,33.34-116.46,81.19-160.86,142.23c-40.72,55.99-72.17,121.5-93.46,194.7c-20.25,69.6-30.51,143.19-30.51,218.71
	c0,49.85,7.3,94.85,21.7,133.73c14.75,39.82,37.03,73.76,66.22,100.86c53.89,50.04,128.6,75.41,222.08,75.41
	c86.59,0,168.84-28.08,231.59-79.06c31.82-25.85,56.96-56.23,74.73-90.3c19.03-36.48,28.68-75.38,28.68-115.64
	c0-44.65-9.1-85.48-27.04-121.36C1616.82,5546.35,1593.86,5518.62,1564.71,5496.19z M1484.16,5810.11
	C1357.78,5779.74,1310,5727.77,1310,5625c0-16.47,7.98-31.03,23.71-43.26c17.5-13.61,42.28-21.74,66.29-21.74
	c24.58,0,61.53,8.22,91.54,31.31c32.15,24.73,48.46,61.3,48.46,108.69C1540,5740.59,1520.21,5779.54,1484.16,5810.11z"/>
<path d="M2490.83,6102.91c-27.13-25.19-60.27-42.96-98.52-52.81c-35.15-9.05-69.51-10.1-92.31-10.1
	c-35.57,0-67.84,10.71-93.32,30.97c-23.71,18.85-40.95,44.96-51.23,77.6c-22.99,72.95-9.04,174.79,38.29,279.42
	c42.49,93.92,106.61,178.22,183.16,241.65c-10.42,15.32-20.98,29.29-31.16,41.8c-36.65,45.01-72.23,75.99-95.63,94.06
	c-6.5,5.02-12.51,9.39-18.02,13.2l-76.39-190.97l-111.42,44.57L2159.38,6960H2200c10.09,0,40.79,0,106.75-47.11
	c28.97-20.69,73.31-56.8,120.06-111.34c46.02-53.69,82.85-111.86,109.45-172.89c32.35-74.21,48.75-151.14,48.75-228.66
	C2585,6258.93,2554.2,6161.75,2490.83,6102.91z M2434.45,6560.71c-54.28-49.64-99.91-112.61-131.38-182.19
	c-33.76-74.62-46.78-150.72-33.18-193.88c7.2-22.83,17.45-24.65,30.11-24.65c53.95,0,85.58,8.94,109.17,30.84
	c15.83,14.7,28.5,36.49,37.65,64.75c12.06,37.25,18.18,85.83,18.18,144.41C2465,6459.24,2452.76,6513.17,2434.45,6560.71z"/>
</svg>
