<?xml version="1.0" encoding="iso-8859-1"?>
<!-- Generator: Adobe Illustrator 15.0.0, SVG Export Plug-In . SVG Version: 6.00 Build 0)  -->
<svg version="1.2" baseProfile="tiny" id="&#x30EC;&#x30A4;&#x30E4;&#x30FC;_1"
	 xmlns="http://www.w3.org/2000/svg" xmlns:xlink="http://www.w3.org/1999/xlink" x="0px" y="0px" width="7000px" height="7000px"
	 viewBox="0 0 7000 7000" xml:space="preserve">
<path d="M396,980c-126.63,0-218.6-30.65-273.36-91.11C76.84,838.32,70,780.17,70,750v-14.42l11.26-9.01
	C100.72,711,537.45,361.73,644.62,284.64c-5-9.79-10.92-19.78-17.92-29.6C578.89,188,501.27,154,396,154
	c-59.28,0-108.83,9.63-145.75,28.1c33.54,13.75,82.58,34.4,120.65,71.38c36.96,35.89,51.75,88.1,35.99,126.97
	C394.11,411.94,364.27,430,325,430H100v-60h225c21.38,0,25.07-9.11,26.29-12.1c5.7-14.04-1.04-40.84-22.19-61.37
	c-30.81-29.92-73.32-47.32-104.36-60.03c-11.97-4.9-22.31-9.13-30.56-13.48c-6.68-3.52-24.41-12.86-27.45-32.51
	c-1.98-12.76,3.14-25.31,14.04-34.41C230.1,114.89,302.51,94,396,94c67.85,0,127.45,12.85,177.15,38.2
	c41.34,21.09,75.8,50.7,102.41,88.01C720.22,282.85,730,349.58,730,370v230c0,27.89-3.78,125.98-52.4,217.23
	c-25.73,48.3-59.95,86.57-101.72,113.77C525.96,963.51,465.43,980,396,980z M130.65,763.91c2.1,22.83,10.18,55.68,36.46,84.7
	C210.01,895.98,287.02,920,396,920c105.41,0,182.34-44.07,228.65-130.98C667.81,708,670,617.35,670,600V370
	c0-3.91-1.02-13.58-4.03-26.69C553.25,426.63,200.16,708.38,130.65,763.91z"/>
<path d="M1475,980c-13.63,0-34.22,0-52.76-3.71c-47.15-9.43-52.24-39.01-52.24-51.29V209.7c-2.27-0.44-5.33-0.88-9.38-1.21
	c-8.99-0.73-18.98-0.64-27.8-0.55c-2.78,0.03-5.4,0.05-7.82,0.05c-27.67,0-88.95,20.13-144.41,75.59
	C1134.7,329.48,1080,413.47,1080,553c0,109.35,25.86,207.1,72.83,275.22C1193.03,886.55,1246.67,920,1300,920v60
	c-36.92,0-73.02-10.49-107.3-31.19c-33.67-20.33-63.71-49.44-89.27-86.53c-26.2-38-46.67-82.99-60.83-133.7
	C1027.6,674.92,1020,615.85,1020,553c0-160.08,64.26-257.93,118.16-311.84C1202.52,176.81,1278.37,148,1325,148
	c2.24,0,4.66-0.02,7.23-0.05c28.47-0.28,63.89-0.63,84.24,19.51c8.73,8.64,13.53,20.2,13.53,32.54v716.53
	c2.91,0.8,7.4,1.71,14.06,2.39c10.71,1.09,22.4,1.09,30.94,1.09c55.05,0,115.13-34.85,160.7-93.21
	c54.31-69.56,84.16-166.78,84.05-273.76c-0.1-100.77-19.16-186.28-55.12-247.3C1626.4,240.88,1571.01,208,1500,208v-60
	c92.44,0,167.24,44.01,216.32,127.27c41.39,70.22,63.32,166.25,63.43,277.7c0.06,62.84-8.93,122.34-26.73,176.84
	c-16.46,50.42-40.03,95.47-70.03,133.9c-28.51,36.51-61.36,65.31-97.65,85.6C1549.43,969.39,1511.27,980,1475,980z"/>
<path d="M2500,2955v-60c76.99,0,127.25-53.62,155.86-98.6c41.27-64.88,64.04-152.4,64.14-246.43
	c0.12-115.33-27.57-202.99-82.28-260.55c-48.03-50.53-117.81-78.59-207.72-83.6V2955h-30c-114.9,0-205.97-31.16-270.66-92.63
	C2056.79,2793.45,2020,2688.35,2020,2550c0-72.26,11.92-138.86,35.42-197.94c20.68-51.98,50.7-97.96,86.81-132.98
	c48.19-46.74,105.32-72.64,156.69-71.07l-1.84,59.97c-34.72-1.06-77.01,19.19-113.08,54.17c-38.84,37.67-104,125.16-104,287.85
	c0,217.89,97.52,333.54,290,344.19V2145h30c121.58,0,216.2,34.68,281.21,103.08c65.68,69.1,98.92,170.69,98.79,301.95
	c-0.11,105.27-26.21,204.2-73.51,278.57C2654.65,2910.11,2581.32,2955,2500,2955z"/>
<path d="M2630,649h-60V325c0-58.63-16.56-195-170-195s-170,136.37-170,195v324h-60V325c0-49.36,9.63-95.92,27.86-134.65
	C2223.69,135.45,2279.74,70,2400,70s176.31,65.45,202.14,120.35C2620.37,229.08,2630,275.64,2630,325V649z"/>
<path d="M2400,980c-55.19,0-126.65-13.48-191.16-36.06c-53.91-18.87-125.22-51.93-158.8-102.3l-11.55-17.33l157.19-217.55
	l24.87,23.38C2263.09,670.13,2330.17,694,2400,694c67.09,0,110.79-21.58,183.36-69.96l24.23-16.16l153.82,216.58l-11.45,17.18
	c-33.58,50.37-104.89,83.43-158.8,102.3C2526.65,966.52,2455.19,980,2400,980z M2112.92,823.75C2167.04,877.02,2307.23,920,2400,920
	c92.84,0,233.19-43.06,287.22-96.38l-94.99-133.75C2525.06,732.42,2473.04,754,2400,754c-40.83,0-82.11-6.94-119.35-20.08
	c-27.86-9.83-52.96-22.73-74.98-38.53L2112.92,823.75z"/>
<path d="M3400,980c-97.53,0-168.62-28.12-211.28-83.58C3159.71,858.7,3145,809.44,3145,750v-33.98l33.72,4.22
	c57.83,7.23,144.85,17.66,191.28,22.34V350h60v455h-30c-20.28,0-131.09-13.22-192.87-20.8C3219.19,875.5,3282.61,920,3400,920
	c147.91,0,170-106.51,170-170h60c0,62.71-17.53,116.9-50.7,156.71c-19.45,23.33-44.02,41.41-73.05,53.72
	C3475.64,973.42,3439.89,980,3400,980z"/>
<path d="M3625,605h-150v-60h150c16.21,0,32.97-8.71,45.98-23.9c15.49-18.07,24.02-43.32,24.02-71.1
	c0-86.67-78.03-131.78-160.64-179.54c-48.39-27.97-98.07-56.7-133.87-95.4c-34.43,39.93-80.89,71.92-126.15,103.07
	C3200.11,329.23,3130,377.5,3130,450c0,33.43,5.48,58.06,16.29,73.19c6.69,9.36,19.53,21.81,53.71,21.81h124.97l0.03,60h-125
	c-45.79,0-80.29-15.79-102.54-46.94C3078.98,532.19,3070,496.84,3070,450c0-47.63,18.65-90.62,57.03-131.44
	c31.61-33.62,73.13-62.21,113.29-89.85c52.33-36.03,106.45-73.28,133.96-119.14L3400,66.69l25.72,42.87
	c26.45,44.08,80.95,75.59,138.66,108.95c44.65,25.81,90.82,52.5,126.47,87.17C3734.02,347.64,3755,394.85,3755,450
	c0,42.09-13.66,81.21-38.46,110.15C3692.12,588.65,3658.75,605,3625,605z"/>
<path d="M5425,980c-116.57,0-208.89-19.23-274.41-57.16C5081.51,882.84,5045,823.08,5045,750v-17.09l673.72-399.24
	c-6.7-42.62-39.44-83.83-93.88-117.53C5562.08,177.28,5480.13,155,5400,155c-162.64,0-273.68,116.38-295.58,225.88l-58.83-11.77
	c6.98-34.92,20.63-69.1,40.56-101.6c20.14-32.83,45.67-62.25,75.9-87.44c31.8-26.5,67.6-47.26,106.39-61.71
	C5310.09,102.86,5354.35,95,5400,95c90.97,0,184.43,25.56,256.42,70.12c37.21,23.03,66.8,49.82,87.97,79.62
	c23.63,33.28,35.62,68.7,35.62,105.26v17.09l-674.05,399.44C5117.41,864.33,5232.25,920,5425,920c72.32,0,149.29-24.29,211.18-66.63
	c57.59-39.4,83.82-81.2,83.82-103.37h60c0,25.02-11.14,53.01-32.22,80.96c-19.13,25.36-46,50.23-77.71,71.93
	c-33.34,22.81-71.72,41.79-110.97,54.87C5514.82,972.52,5469.7,980,5425,980z"/>
<path d="M4275,980c-66.46,0-122.82-13.51-162.98-39.06C4068.8,913.43,4045,872.26,4045,825l0-11.68l7.9-8.6
	c1.31-1.43,132.91-144.77,265.86-286.26c73.79-78.53,134.39-142.02,180.33-188.93c-12.49-48.72-30.55-88.53-54.1-119.09
	C4404.83,158.33,4349.22,133,4275,133c-42.43,0-78.35,13.38-103.87,38.7c-1.01,1-1.73,1.83-2.24,2.48
	c2.13,2.72,7.93,8.59,22.74,16.87c15.54,8.69,34.11,16.24,49.02,22.31c9.09,3.7,16.94,6.89,22.77,9.81
	c34.14,17.07,50.42,52.55,41.48,90.4c-9.23,39.11-42.09,66.43-79.9,66.43h-200v-60h200c11.5,0,19.21-10.48,21.51-20.21
	c1.73-7.34,1.42-17.28-9.92-22.95c-3.76-1.88-10.95-4.81-18.56-7.9c-42.32-17.23-100.29-40.82-108.95-84.16
	c-2.74-13.72-1.54-34.51,19.8-55.67c37-36.7,87.53-56.1,146.13-56.1c92.77,0,165.96,33.92,217.51,100.81
	c22.6,29.33,41,65.28,54.87,107.18c10.06-9.9,18.86-18.36,26.33-25.34C4602.14,229.1,4611.73,223,4625,223
	c25.66,0,47.7,6.92,65.51,20.56c17.66,13.53,31.01,33.22,40.81,60.19C4747.7,348.82,4755,417.06,4755,525
	c0,129.83-39.11,235.3-71.92,300.92c-36.89,73.77-83.86,133.01-119.67,150.92l-26.83-53.67c17.05-8.52,57.12-52.66,92.83-124.08
	C4659.34,739.25,4695,643.12,4695,525c0-99.28-6.38-163.07-20.07-200.75c-10.94-30.1-24.48-39.12-42.18-40.89
	c-7.54,6.13-25.59,22.32-67.95,64.98c10.1,51.62,15.2,110.86,15.2,176.66c0,51.43-9.04,105.28-26.86,160.06
	c-16.46,50.6-40.21,100.35-68.65,143.85c-28.68,43.86-61.72,80.73-95.55,106.62C4350.4,965.04,4312.06,980,4275,980z
	 M4105.76,835.86c3.15,21.9,16.05,40.18,38.47,54.45C4174.75,909.73,4219.97,920,4275,920c48.26,0,109.29-47.48,159.27-123.92
	C4487.95,713.98,4520,612.64,4520,525c0-44.88-2.45-86.04-7.32-123.4c-44.02,45.5-98.56,102.91-162.57,171.12
	C4241.33,688.65,4136.06,802.92,4105.76,835.86z"/>
<path d="M2400,3980c-97.96,0-187.19-42.71-251.25-120.27C2080.88,3777.57,2045,3661.82,2045,3525
	c0-136.21,28.71-252.11,83.02-335.17c30.01-45.9,67.62-81.55,111.78-105.94c46.72-25.81,100.63-38.9,160.21-38.9
	c45.56,0,88.15,6.42,126.58,19.09c36.89,12.16,70.06,30.07,98.59,53.26c53.82,43.73,89.87,104.85,104.25,176.77l-58.83,11.77
	C2645.43,3180.1,2544.27,3105,2400,3105c-96.1,0-170.71,39.59-221.77,117.67c-47.91,73.27-73.23,177.82-73.23,302.33
	c0,272.86,148.16,395,295,395c74.49,0,150.12-31.17,207.49-85.53c47.03-44.56,77.1-99.52,85.26-154.47H2575
	c-60.54,0-118.1-20.6-162.07-58c-20.01-17.02-36.61-37.27-48-58.55c-11.92-22.28-18.23-45.84-18.23-68.12
	c0-36.64,16.73-69,47.1-91.11c31.18-22.71,75.33-34.22,131.2-34.22h225v60h-225c-42.31,0-75.47,7.86-95.89,22.72
	c-14.87,10.83-22.42,25.17-22.42,42.61c0,50.83,65.56,124.67,168.3,124.67h180v30c0,80.95-38.72,164.06-106.24,228.03
	c-33.12,31.38-70.95,56.21-112.43,73.81C2492.28,3970.52,2446.41,3980,2400,3980z"/>
<path d="M537.46,1984.06l-11.87-16.62c-36.63-51.28-93.45-129.34-125.59-170.59c-32.14,41.25-88.96,119.31-125.59,170.59
	l-11.27,15.78l-19.02-3.8c-35.66-7.13-68.78-24.59-98.42-51.88c-26.7-24.58-50.05-56.67-69.4-95.37
	C39.99,1759.57,20,1668.23,20,1575c0-70.73,7.73-134.41,22.97-189.28c18.15-65.34,47.02-118.14,85.82-156.93l42.43,42.43
	C95.82,1346.6,80,1478.02,80,1575c0,84.1,17.74,165.9,49.96,230.33c20.55,41.1,55.32,91.44,107.82,110.22
	c33.33-46.39,118.94-164.7,141.01-186.77l21.21-21.21l21.21,21.21c21.89,21.89,106.28,138.44,140.18,185.61
	c36.54-16.29,72.1-53.02,99.77-103.76c20.57-37.71,44.17-96.54,54.07-178.8c-25.77,0.76-62.32-0.13-105.12-8.87
	c-74.17-15.13-142.91-48.75-204.32-99.92c-57.18-47.65-106.5-103.63-142.62-161.9c-33.3-53.7-52.63-105.12-54.43-144.78
	c-1.53-33.64,10.06-52.6,20.04-62.59C260.03,1122.54,324.81,1120,400,1120c116.44,0,214.13,43.75,282.5,126.52
	c31.89,38.6,56.46,84.69,73.05,136.99C771.77,1434.68,780,1490.69,780,1550c0,109.95-22.88,210.01-66.16,289.37
	c-20.07,36.79-43.73,67.59-70.33,91.53c-27.21,24.49-56.22,40.71-86.23,48.21L537.46,1984.06z M400,1180
	c-24.32,0-54.59,0-81.06,2.94c-36.89,4.1-46.23,11.77-47.72,13.27c-0.89,0.97-3.27,6.62-2.43,19.24
	c3.96,59.21,66.79,170.98,175.42,261.5c111.5,92.92,222.87,96.88,275.48,94.67c0.21-7.07,0.32-14.28,0.32-21.62
	C720,1325.23,594.39,1180,400,1180z"/>
<path d="M1069.76,1922.58l-39.51-45.15c23.28-20.37,543.48-475.38,662.28-565.87c-7.76-23.4-33.91-57.47-81.34-89.91
	c-61.89-42.35-138.87-66.63-211.18-66.63c-177.44,0-259.53,112.1-297.15,206.14l-55.71-22.28
	c29.17-72.92,71.31-130.81,125.26-172.06c62.3-47.64,138.87-71.79,227.6-71.79c44.7,0,89.82,7.48,134.1,22.24
	c39.25,13.08,77.63,32.06,110.97,54.87c31.71,21.7,58.58,46.57,77.71,71.93c21.08,27.94,32.22,55.94,32.22,80.96v16.06l-13.36,8.91
	C1683.61,1388.65,1276.77,1741.44,1069.76,1922.58z"/>
<rect x="1495" y="1325" width="60" height="650"/>
<rect x="2095" y="1150" width="60" height="825"/>
<path d="M2375,1980h-11.51l-258.56-232.7l40.14-44.6l241.11,217c53.32-2.8,128.11-25.55,190.47-82.48
	C2654.07,1766.53,2695,1658.56,2695,1525c0-311.38-224-345-320-345v-60c44,0,86.67,5.93,126.43,17.63
	c47.03,13.83,88.69,35.42,123.81,64.16c40.5,33.13,72.03,75.61,93.73,126.25c23.9,55.77,36.02,122.04,36.02,196.97
	c0,80.19-13.27,152.56-39.43,215.1c-23.15,55.34-56.28,102.92-98.46,141.43c-36.25,33.09-78.02,58.62-124.18,75.87
	C2453.36,1972.18,2412.58,1980,2375,1980z"/>
<rect x="5695" y="1125" width="60" height="850"/>
<path d="M5435,1980h-10c-37.58,0-78.36-7.82-117.92-22.6c-46.15-17.25-87.93-42.78-124.18-75.87
	c-42.18-38.51-75.31-86.1-98.46-141.43c-26.17-62.53-39.43-134.9-39.43-215.1c0-75.1,13.6-141.74,40.41-198.05
	c24-50.39,58.59-92.76,102.84-125.95c37.76-28.32,82.12-49.69,131.85-63.5c41.22-11.45,86.14-17.5,129.9-17.5v60
	c-57.61,0-345,16.63-345,345c0,133.56,40.93,241.53,118.35,312.22c62.93,57.46,138.54,80.1,191.95,82.55L5707,1701l36,48L5435,1980z
	"/>
<rect x="5045" y="2125" width="60" height="850"/>
<path d="M5350,2982v-60c57.61,0,345-16.63,345-345c0-133.56-40.93-241.53-118.35-312.22c-62.93-57.46-138.54-80.1-191.95-82.55
	L5093,2401l-36-48l308-231h10c37.58,0,78.36,7.82,117.92,22.6c46.15,17.25,87.93,42.78,124.18,75.87
	c42.18,38.51,75.31,86.1,98.46,141.43c26.17,62.53,39.43,134.9,39.43,215.1c0,75.1-13.6,141.74-40.41,198.05
	c-24,50.39-58.59,92.77-102.84,125.95c-37.76,28.32-82.12,49.69-131.85,63.5C5438.69,2975.95,5393.77,2982,5350,2982z"/>
<rect x="3070" y="1025" width="60" height="950"/>
<path d="M3375,1980h-8.74l-282.37-179.69l32.21-50.62l267.53,170.24c50.59-0.78,119.6-8.71,177-40.02
	C3634.23,1839.77,3670,1772.74,3670,1675c0-98.03-37.38-171.52-111.11-218.44c-56.41-35.9-125.92-49.97-175.36-51.43l-267.43,170.18
	l-32.21-50.62L3366.26,1345h8.74c28.23,0,127.25,4.39,216.11,60.94c41.92,26.68,74.98,60.96,98.25,101.89
	c26.97,47.42,40.64,103.67,40.64,167.17c0,63.71-13.81,118.88-41.04,163.95c-23.51,38.91-57.01,70.41-99.59,93.64
	C3517.52,1971.77,3433.14,1980,3375,1980z"/>
<rect x="4095" y="1025" width="60" height="950"/>
<path d="M4425,1630h-59.46l-257.75-180.42l34.41-49.15L4384.46,1570H4425c70.52,0,128.41-13.28,172.07-39.47
	c64.98-38.99,97.93-108.14,97.93-205.52c0-87.9-33.26-154.09-98.85-196.72c-68.92-44.8-148.42-48.28-171.15-48.28h-40.54
	l-242.25,169.58l-34.41-49.15L4365.54,1020l59.46,0c21.64,0,55.93,2.12,96.34,12.22c40.04,10.01,76.21,25.4,107.51,45.75
	c38.24,24.86,68.36,56.65,89.52,94.5c24.3,43.47,36.63,94.79,36.63,152.53c0,63.35-12.26,118.09-36.43,162.73
	c-21.23,39.19-51.72,70.9-90.63,94.25C4574.82,1613.84,4506.55,1630,4425,1630z"/>
<path d="M6400,1980c-69.58,0-149.75-21.25-214.46-56.84c-35.91-19.75-65.93-43.05-89.21-69.25c-26.66-29.99-43.73-62.98-50.75-98.03
	c-4.62-23.12,16.22-37.17,30.01-46.48c11.6-7.82,28.43-18.06,51.46-31.3c42.36-24.36,101.54-56.47,164.19-90.46
	c86.79-47.09,185.15-100.47,263.81-146.74c42.41-24.95,74.82-45.28,99.09-62.17c24.21-16.84,34.93-26.61,39.52-31.48
	C6665.95,1233.61,6546.69,1155,6400,1155c-150.38,0-271.93,82.61-295.58,200.88l-58.83-11.77c13.95-69.73,55.89-132.88,118.1-177.81
	c64.59-46.65,146.31-71.3,236.31-71.3s171.73,24.66,236.31,71.3c62.21,44.93,104.16,108.08,118.1,177.81
	c5,25.01-15.36,46.27-47.47,70.48c-23.53,17.74-57.13,39.63-102.73,66.9c-82.53,49.36-189.75,107.54-284.36,158.88
	c-56.07,30.42-109.03,59.16-149.33,82c-34.46,19.53-52.52,30.74-61.98,37.13c14.14,41.98,51.15,80.96,105.91,111.08
	c56.25,30.94,125.62,49.41,185.54,49.41c128.31,0,273.33-39.64,295.58-150.88l58.83,11.77c-13.44,67.2-59.15,121-132.2,155.6
	C6546.29,1972.45,6459.47,1980,6400,1980z"/>
<rect x="6195" y="1275" width="60" height="500"/>
<path d="M400,2980c-74.33,0-142.37-17.07-202.21-50.73c-63.03-35.46-101.55-80.82-122.75-112.63l49.92-33.28
	C152.35,2824.44,233.98,2920,400,2920c86.4,0,159.42-18.72,211.18-54.13C666.8,2827.81,695,2772.01,695,2700
	c0-16.53-0.69-37.52-3.08-60.48c-16,22.9-34.5,41.73-55.24,56.18C604.04,2718.46,566.46,2730,525,2730
	c-49.31,0-95.35-19.99-129.62-56.28C363.36,2639.83,345,2594.73,345,2550s18.36-89.83,50.38-123.72
	C429.65,2389.99,475.69,2370,525,2370c71.36,0,128.77,29.66,168.35,86.37c1.13-11.29,1.65-21.87,1.65-31.37
	c0-164.02-115.79-270-295-270c-170.46,0-232.03,76.14-273.17,158.42l-53.67-26.83c31.21-62.43,67.22-105.81,113.32-136.54
	C242.04,2113,311.88,2095,400,2095c104.73,0,193.98,32.01,258.1,92.56c31.29,29.55,55.52,65.01,72.02,105.39
	C746.63,2333.36,755,2377.79,755,2425c0,40.84-6.98,83.93-19.53,123.6c16.6,58.24,19.53,117.13,19.53,151.4
	c0,91.7-38.01,166.18-109.93,215.38C583.28,2957.66,498.54,2980,400,2980z M525,2430c-71.78,0-120,62.05-120,120s48.22,120,120,120
	c55.1,0,98.85-28.45,130.03-84.57c6.76-12.18,12.53-24.96,17.4-37.95C650.34,2484.48,607.41,2430,525,2430z"/>
<path d="M1580,2925h-60v-542.41l170.85-97.63C1655.22,2163.26,1493.94,2130,1400,2130c-88.92,0-245.63,26.4-296.15,203.24
	l-57.69-16.48c12.97-45.4,33.01-85.54,59.56-119.29c24.2-30.76,54.02-56.52,88.63-76.56c72.68-42.08,151.95-50.91,205.66-50.91
	c76,0,153.78,17.1,213.42,46.92c79.56,39.78,128.38,101.39,141.18,178.15l3.44,20.61L1580,2417.41V2925z"/>
<path d="M1400,2980c-95.94,0-174.05-14.73-232.17-43.79c-67.23-33.62-108.36-85.87-122.25-155.32l-4.24-21.2L1220,2657.59V2125h60
	v567.41l-170.14,97.22c29.04,86.53,126.5,130.37,290.14,130.37c77.74,0,145.31-13.93,195.4-40.3
	c56.42-29.69,90.07-74.99,100.01-134.63l59.18,9.86c-6.81,40.86-22.32,77.18-46.09,107.94c-21.7,28.08-50.35,51.6-85.16,69.92
	C1564.68,2963.68,1487.44,2980,1400,2980z"/>
<path d="M3166.11,2750.31l-32.21-50.62c1.27-0.81,128.57-81.85,258.94-167.56c197.91-130.11,257.26-175.19,275-190.57
	C3642.18,2224.44,3543.09,2155,3400,2155c-148.46,0-249.54,74.74-270.41,199.93l-59.18-9.86c13.2-79.23,53.12-144.35,115.42-188.33
	c57.22-40.39,131.28-61.74,214.18-61.74s156.95,21.35,214.18,61.74c62.3,43.98,102.21,109.1,115.42,188.33l0.41,2.45v2.48
	c0,16.33-10.31,27.16-34.96,46.77c-14.71,11.7-36.14,27.48-63.7,46.9c-45.87,32.32-109.74,75.47-189.83,128.26
	C3305.38,2661.64,3167.48,2749.43,3166.11,2750.31z"/>
<path d="M3400,2980c-89.75,0-177.69-25.03-247.6-70.47c-71.22-46.29-118.04-109.74-131.82-178.64l58.84-11.77
	C3101.95,2831.76,3242.76,2920,3400,2920c176.72,0,282.28-106.49,322.15-206.14l55.71,22.28
	c-28.05,70.13-76.13,129.95-139.04,172.99C3571.06,2955.5,3488.48,2980,3400,2980z"/>
<rect x="3495" y="2325" width="60" height="500"/>
<rect x="4220" y="2050" width="60" height="700"/>
<path d="M4400,2980c-81.24,0-167.19-20.61-235.79-56.55c-37.3-19.54-68.36-42.87-92.31-69.34c-26.98-29.82-44.24-62.86-51.31-98.23
	l-2.89-14.45l509.67-586.12l45.28,39.37l-489.65,563.1c13.91,43.12,52.08,82.67,109.06,112.51c60.3,31.58,136.1,49.7,207.96,49.7
	s147.66-18.12,207.96-49.7c62.95-32.97,102.95-77.79,112.63-126.18l58.84,11.77c-7.07,35.36-24.34,68.41-51.31,98.23
	c-23.95,26.47-55.01,49.8-92.31,69.34C4567.19,2959.39,4481.24,2980,4400,2980z"/>
<path d="M6440.69,2981.63l-385.34-333.96l39.29-45.34l364.32,315.75C6621.89,2886.42,6695,2712.27,6695,2550
	c0-184.04-88.65-313.59-232.62-342.45L6264.42,2455H6045v-355h60v295l130.58,0l201.7-252.12l16.96,2.42
	c92.88,13.27,170.09,59.65,223.29,134.14c50.68,70.95,77.46,164.51,77.46,270.56c0,52.57-6.53,103.43-19.39,151.17
	c-13.08,48.53-32.38,92.55-57.35,130.84c-26.17,40.13-58,73.06-94.62,97.89c-38.81,26.32-82.34,43.07-129.39,49.79L6440.69,2981.63z
	"/>
<path d="M202.55,3597.68c-16.05,0-32.04-2.28-47.63-6.87c-38.04-11.18-72.69-35.28-102.97-71.61l46.09-38.41
	c42.05,50.46,93.01,68.19,143.48,49.91C301.48,3509,345,3443.51,345,3375c0-56.7-8.63-103.93-24.96-136.58
	C300.12,3198.56,269.92,3180,225,3180c-26.61,0-57.71,13.52-83.19,36.17C116.52,3238.65,105,3262.42,105,3275H45
	c0-33.22,21.29-71.98,56.94-103.67c36.7-32.62,81.55-51.33,123.06-51.33c67.33,0,118.75,31.67,148.71,91.58
	C394.47,3253.11,405,3308.09,405,3375c0,45.69-14.51,92.1-40.85,130.68c-26,38.07-62.29,66.99-102.2,81.44
	C242.53,3594.15,222.5,3597.68,202.55,3597.68z"/>
<path d="M300,3980c-32.41,0-62.63-8.34-89.81-24.8c-24.01-14.54-45.81-35.58-64.8-62.54c-30.36-43.1-54.41-102.5-71.5-176.54
	C47.08,3599.95,45,3483.06,45,3450h60c0,22.39,1.32,139.8,27.36,252.63c15.33,66.45,36.23,118.76,62.09,155.49
	C223.78,3899.76,258.31,3920,300,3920c62.49,0,166.33-6.38,253.3-24.38c46.93-9.71,83.44-21.57,108.51-35.24
	c15.14-8.26,33.19-21.1,33.19-35.38c0-60.89-43.29-169.1-71.93-240.71C602.21,3532.14,595,3513.43,595,3500h60
	c0-1.35-0.13-2.14-0.14-2.17c1.27,7.57,13.3,37.65,23.92,64.18C710.95,3642.42,755,3752.56,755,3825c0,19.18-6.72,37.06-19.98,53.16
	c-10.56,12.82-25.52,24.56-44.48,34.9c-30.27,16.51-72.35,30.41-125.08,41.32C474.05,3973.29,365.33,3980,300,3980z"/>
<path d="M600,3330c-16.79,0-31.49-7.86-40.35-21.55c-6.26-9.68-9.43-21.89-9.43-36.29c0-23.35,8.76-53.42,22.85-78.49
	c18.49-32.87,42.41-50.98,67.35-50.98c7.99,0,15.73,1.84,22.99,5.48c30.39,15.2,43.56,48.81,34.37,87.74
	c-5.2,22.04-17.27,44.57-33.11,61.81C645.54,3318.54,622.58,3330,600,3330z M639.31,3204.57c-4.83,4.19-12.93,14.19-20.15,31.19
	c-5.08,11.95-7.58,22.46-8.52,30.03c11.04-7.51,24.17-24.24,28.75-43.66C640.36,3218.04,641.92,3209.4,639.31,3204.57z"/>
<path d="M1400,3980c-81.4,0-150.51-19.67-205.41-58.47c-47.1-33.29-83.5-80.38-108.18-139.98c-34.68-83.73-39.05-173.68-36.6-234.39
	c1.61-40.01,6.25-70.11,9.86-88.31c8.39-42.32,16.99-50.92,21.12-55.06c13.38-13.38,31.49-17.29,49.69-10.74
	c10.69,3.85,20.12,10.55,31.04,18.32c21.08,14.98,47.31,33.63,88.47,33.63c33.06,0,54.17-20.23,66.05-37.2
	c18.67-26.67,28.95-64.95,28.95-107.8c0-54.74-16.48-120-95-120c-43.32,0-80.84,13.69-111.52,40.7
	c-23.64,20.81-34.41,42.23-34.51,42.44l0.08-0.16l-54.09-25.96c1.49-3.1,15.45-31.12,46.54-59.26
	c29.11-26.35,79.38-57.76,153.5-57.76c46.73,0,85.87,16.51,113.2,47.75c27.74,31.7,41.8,76.19,41.8,132.25
	c0,55.04-14.13,105.54-39.8,142.2c-28.35,40.49-69.26,62.8-115.2,62.8c-60.31,0-98.18-26.92-123.24-44.73
	c-1.61-1.14-3.38-2.4-5.17-3.65c-5.67,22.63-12.82,67.94-12.32,123.66c0.54,60.78,10.22,148.2,53.23,219.46
	C1210.67,3879.54,1290.57,3920,1400,3920c243.82,0,295-174.02,295-320c0-245.51-74.02-370-220-370v-60
	c53.72,0,100.85,13.26,140.08,39.41c35.5,23.67,64.69,58.04,86.75,102.17c35.28,70.56,53.17,167.59,53.17,288.42
	c0,105.01-25.9,194.5-74.89,258.81c-29.25,38.4-66.76,68.15-111.47,88.43C1520.73,3968.98,1463.99,3980,1400,3980z"/>
<path d="M3270.07,3979.59c-42.23-7.04-79.44-21.58-110.62-43.23c-32.09-22.28-58.85-52.81-79.54-90.74
	C3039.6,3771.7,3020,3666.83,3020,3525c0-97.99,36.16-204.07,96.74-283.78c33.87-44.57,73.98-79.77,119.2-104.62
	c50.23-27.6,105.43-41.6,164.06-41.6c69.79,0,132.18,15.23,185.44,45.28c46.81,26.4,86.44,64.11,117.79,112.06
	c26.44,40.43,46.56,87.36,59.82,139.49c11.08,43.57,16.94,89.62,16.94,133.18c0,55.27,0,112.43-33.79,146.21l-8.79,8.79H3725
	c-10.74,0-25.83-4.63-36.73-26.68c-3.92-7.93-7.34-17.7-11.29-29.01c-22-62.88-48.27-119.31-126.98-119.31
	c-88.08,0-145,66.73-145,170c0,64.04,14.89,115.75,43.05,149.54c24.78,29.74,60.04,45.46,101.95,45.46
	c71.67,0,105.65-56.82,121.54-104.49l56.92,18.97c-14.64,43.92-36.49,78.81-64.96,103.71c-31.7,27.74-69.89,41.8-113.5,41.8
	c-29.37,0-56.86-5.6-81.72-16.65c-25.64-11.4-47.96-28.35-66.33-50.4c-18.53-22.24-32.79-49.41-42.36-80.75
	c-9.68-31.69-14.59-67.75-14.59-107.2c0-67.69,19.99-125.46,57.8-167.06c36.9-40.59,89.18-62.94,147.2-62.94
	c55.6,0,100.71,20.7,134.1,61.52c15.79,19.31,26.87,40.47,35.29,60.25c0.61-13.64,0.61-28.02,0.61-41.78c0-137.42-67.4-370-320-370
	c-208.79,0-320,214.88-320,370c0,131.54,17.2,227.01,52.59,291.88c32.32,59.26,79.14,92.16,147.34,103.52L3270.07,3979.59z"/>
<path d="M4400,3980c-125.88,0-220.26-42.01-280.51-124.85c-49.43-67.96-74.49-162.22-74.49-280.15
	c0-128.3,37.72-247.99,106.22-337.04C4222.14,3145.77,4319.37,3095,4425,3095c60.66,0,112.35,8.88,158.02,27.15
	c55.54,22.22,102.98,59.18,140.98,109.85l-48,36c-57.82-77.09-137.58-113-251-113c-86.58,0-166.92,42.45-226.22,119.54
	C4138.3,3353.16,4105,3459.86,4105,3575c0,104.98,21.2,187.36,63.01,244.85C4216.34,3886.31,4294.39,3920,4400,3920
	c150.38,0,271.93-82.61,295.58-200.88c3.65-18.27,2.3-41.64-1.01-63.62c-2.26,3.69-4.63,7.42-7.11,11.15
	c-38.54,57.81-86.07,88.36-137.46,88.36c-56.86,0-103.87-21.18-135.93-61.26c-28.83-36.04-44.07-85.75-44.07-143.74
	c0-55.15,19.69-101.81,56.94-134.92c32.7-29.07,76.4-45.08,123.06-45.08c90.02,0,147.56,84.75,149.96,88.36l-49.92,33.28l0.06,0.09
	c-0.42-0.62-42.45-61.73-100.1-61.73c-59.73,0-120,37.1-120,120c0,43.6,11.69,145,120,145c30.55,0,59.78-20.41,86.88-60.66
	c18.87-28.03,30.23-56.77,33.61-65.9c2.33-15.02,12.41-21.64,17.05-23.93c10.54-5.2,22.95-3.92,32.39,3.33
	c7.49,5.76,12.32,14.28,18.44,32.56c4.12,12.31,8.13,27.42,11.28,42.55c6.13,29.45,11.94,72.09,4.77,107.93
	c-13.95,69.73-55.89,132.88-118.1,177.81C4571.73,3955.34,4490.01,3980,4400,3980z"/>
<path d="M2375,5980c-84.96,0-162.39-42.12-218.01-118.6c-56.91-78.25-86.99-185.93-86.99-311.4c0-52.83,6.5-104.77,19.31-154.38
	c13.19-51.04,32.4-96.97,57.12-136.52c26.69-42.7,58.83-76.33,95.53-99.95c40.36-25.98,85.12-39.15,133.03-39.15
	c53.37,0,102.62,12.94,146.37,38.46c40.17,23.43,75.03,57.04,103.6,99.9c51.61,77.42,80.04,180.99,80.04,291.64
	c0,127.44-31.34,235.36-90.64,312.09c-29.33,37.96-64.78,67.38-105.36,87.45C2468.15,5969.75,2423.06,5980,2375,5980z M2375,5180
	c-89.57,0-146.06,60.31-177.69,110.9c-42.78,68.45-67.31,162.88-67.31,259.1c0,112.7,26.11,208.18,75.51,276.1
	c44.04,60.55,104.23,93.9,169.49,93.9c164.02,0,270-145.23,270-370c0-97.5-25.5-191.67-69.96-258.36
	C2541.09,5240.71,2478.82,5180,2375,5180z"/>
<path d="M619.12,4979.42c-73.18-14.63-190.66-77.27-288.16-184.2c-55.73-61.12-99.79-130.58-130.97-206.47
	C163.5,4499.95,145,4402.8,145,4300v-232.9l425,300V4100h60v382.9l-425-300V4300c0,221.52,92.61,369.58,170.29,454.79
	c87.86,96.36,194.08,153.49,255.59,165.8L619.12,4979.42z"/>
<path d="M1400,4980c-51.42,0-98.5-6.35-139.93-18.86c-40.32-12.18-75.3-30.17-103.99-53.48c-28.16-22.88-49.88-50.52-64.55-82.15
	c-14.29-30.81-21.53-64.63-21.53-100.51c0-29.79,10.18-61.38,30.26-93.89c17.63-28.54,42.38-57.06,73.56-84.78
	c60.12-53.44,139.1-98.92,216.69-124.79l18.97,56.92c-70.17,23.39-141.53,64.47-195.81,112.71
	c-53.18,47.27-83.68,96.05-83.68,133.83c0,120.28,103.46,195,270,195c80.85,0,139.36-10.97,178.87-33.55
	c34.7-19.83,56-49.61,67.03-93.73l58.21,14.55c-15.06,60.23-46.29,103.17-95.47,131.27C1559.82,4966.44,1491.58,4980,1400,4980z"/>
<path d="M1375,4480c-57.99,0-107.7-15.24-143.74-44.07c-40.08-32.06-61.26-79.06-61.26-135.93c0-56.38,20.88-108.3,58.79-146.21
	c37.91-37.91,89.84-58.79,146.21-58.79s108.3,20.88,146.21,58.79S1580,4243.62,1580,4300c0,45.43-21.84,91.15-59.93,125.42
	C1480.96,4460.62,1429.44,4480,1375,4480z M1375,4155c-84.02,0-145,60.98-145,145c0,108.31,101.4,120,145,120
	c85.45,0,145-63.24,145-120C1520,4215.98,1459.02,4155,1375,4155z"/>
<path d="M3350,4980c-99.86,0-178.82-23.33-234.7-69.34c-63.24-52.08-95.3-131.37-95.3-235.66c0-81.58,23.32-163.01,69.3-242.04
	c39.67-68.17,94.58-132.17,163.19-190.23c60.37-51.08,128.25-94.6,196.31-125.85c66.8-30.67,127.72-46.88,176.19-46.88v60
	c-39.32,0-93,14.7-151.15,41.4c-63.18,29.01-126.32,69.51-182.59,117.12c-32.14,27.19-73.14,66.37-110.46,115.47
	c12.36,88.5,46.02,168.72,95.19,226.57C3325,4688.24,3386.8,4720,3450,4720c83.45,0,150.37-87.17,151.04-88.05l32.03-42.71
	l19.79,49.61c22.04,55.09,10.43,120.5-32.68,184.17c-29,42.84-70.85,82.04-117.81,110.37C3451.81,4963.89,3399.13,4980,3350,4980z
	 M3133.83,4476.05C3102.2,4533.97,3080,4600.98,3080,4675c0,85.5,24.71,149.21,73.45,189.34c44.85,36.93,110.98,55.66,196.55,55.66
	c76.52,0,169.25-54.93,220.49-130.61c11.35-16.76,26.35-43.36,31.48-72.75c-35.53,30.24-88.84,63.35-151.96,63.35
	C3304.91,4780,3179.54,4655.89,3133.83,4476.05z"/>
<path d="M4350,4980c-75.78,0-156.86-32.06-216.88-85.77C4081.52,4848.06,4020,4763.87,4020,4625c0-63.36,6.29-123.77,18.68-179.55
	c12.08-54.38,30.06-104.8,53.43-149.88c23.02-44.39,51.34-83.76,84.19-117.03c32.64-33.06,69.74-60.1,110.28-80.36l26.83,53.67
	C4165.08,4226,4080,4398.46,4080,4625c0,203.48,157.89,295,270,295c88.45,0,148.56-28.01,183.78-85.64
	c19.36-31.69,31.04-72.64,34.84-122.08c-81.96,13.96-147.29,2.39-194.59-34.54c-27.39-21.38-48-50.89-61.25-87.71
	c-11.8-32.75-17.78-71.45-17.78-115.03c0-90.21,40.09-138.04,73.72-162.27c29.91-21.56,66.82-33.69,109.69-36.06
	c40.68-2.24,84.78,4.44,131.08,19.87l-18.97,56.92c-76.35-25.45-144.4-22.56-186.71,7.94c-32.38,23.34-48.8,61.56-48.8,113.6
	c0,50.98,9.71,119.33,55.96,155.44c39.2,30.61,100.36,35.81,181.77,15.46l37.28-9.32V4675c0,77.61-15.15,141.75-45.03,190.64
	c-21.56,35.28-50.82,62.86-86.97,81.97C4457.36,4969.1,4407.57,4980,4350,4980z"/>
<path d="M5392.72,4979.1c-104.9-26.23-192.93-85.34-254.57-170.95c-60.94-84.64-93.15-191.2-93.15-308.15
	c0-63.18,12.03-122.46,35.76-176.18c20.59-46.61,49.52-88.23,86.03-123.76c-9.51-30.63-16.77-62.81-21.48-95.81l59.4-8.49
	c3.09,21.64,7.31,42.6,12.54,62.71c21.4-14.88,44.11-27.57,67.39-37.59c39.36-16.93,79.26-25.88,115.37-25.88
	c56.38,0,108.3,20.88,146.21,58.79S5605,4243.62,5605,4300c0,46.73-16.51,85.87-47.75,113.2c-31.7,27.74-76.19,41.8-132.25,41.8
	c-35.93,0-70.92-10.3-103.98-30.61c-30.12-18.5-57.94-44.91-82.67-78.47c-18.24-24.76-34.4-52.91-48.1-83.5
	c-42.71,48.69-85.25,125.37-85.25,237.58c0,213,115.83,374.28,302.28,420.9L5392.72,4979.1z M5236.73,4218.49
	C5278.63,4324.43,5350.02,4395,5425,4395c54.74,0,120-16.48,120-95c0-84.02-60.98-145-145-145
	C5358.21,4155,5295.93,4172.14,5236.73,4218.49z"/>
<path d="M6400,4980c-118.99,0-210.15-5.21-268.27-30.64c-31.12-13.62-53.17-32.83-67.4-58.75c-13-23.69-19.33-53.33-19.33-90.61
	c0-38.29,27.29-79.01,88.48-132.04c48.05-41.64,112.24-86.58,174.32-130.03c60.83-42.58,123.73-86.61,169.43-126.22
	c58.97-51.11,67.77-76.26,67.77-86.7c0-50.44-13.48-88.15-40.07-112.08c-24.27-21.85-59.58-32.92-104.93-32.92
	c-87.33,0-154.61,96.31-173.17,133.42l-53.67-26.83c6.7-13.39,32.15-60.37,78.53-102.53c46.09-41.9,97.38-64.05,148.3-64.05
	c60.63,0,109.44,16.26,145.07,48.33c39.77,35.79,59.93,88.5,59.93,156.67c0,38.29-27.29,79.01-88.48,132.05
	c-48.05,41.64-112.24,86.58-174.32,130.03c-60.83,42.58-123.73,86.61-169.43,126.22c-58.97,51.11-67.77,76.26-67.77,86.7
	c0,60.1,19.43,80.68,50.77,94.39c41.58,18.19,112.33,25.61,244.23,25.61c109.54,0,184.85-14.71,230.23-44.96
	c38.67-25.78,54.22-61.55,65.66-107.32l58.21,14.55c-12.21,48.83-32.52,103.97-90.59,142.69C6607.19,4962.51,6523.46,4980,6400,4980
	z"/>
<path d="M6278.79,4396.21c-5.96-5.96-29.91-19.36-49.15-30.12c-52.14-29.17-111.24-62.22-131.47-102.68l53.67-26.83
	c2.68,5.37,11.29,17.21,38.78,36.19c20.94,14.46,46.11,28.54,68.31,40.96c28.18,15.76,50.45,28.22,62.29,40.06L6278.79,4396.21z"/>
<path d="M400,5980c-76.14,0-154.87,0-215.74-20.29C108.44,5934.44,70,5880.7,70,5800c0-8.45,0.23-16.78,0.68-25H70
	c0-12.52-0.76-38.47-1.71-71.32c-2.23-76.74-5.61-192.7-4.21-294.95c0.78-56.81,2.98-103,6.56-137.29
	c5.16-49.4,12.79-75.24,26.34-89.19c7.67-7.9,17.62-12.25,28.02-12.25c72.63,0,157.85,69.97,236.13,147.94
	c17.32-22.57,44.74-53,75.39-79.77C488.3,5192.94,534.9,5170,575,5170c25.69,0,49.53,5.4,70.84,16.06
	c19.87,9.94,37.13,24.2,51.28,42.4c25.23,32.44,39.13,75.61,39.13,121.54s-13.9,89.1-39.13,121.54
	c-14.15,18.2-31.41,32.46-51.28,42.4C624.53,5524.6,600.69,5530,575,5530c-43.83,0-80.68-11.07-115.96-34.83
	c-30.91-20.81-58.49-49.82-90.43-83.41c-0.27-0.29-0.54-0.57-0.82-0.86c-28.02,35.25-58.04,65.95-87.35,95.92
	C199.71,5589.37,130,5660.65,130,5800c0,54.94,21.9,85.68,73.24,102.79C254.87,5920,328.65,5920,400,5920
	c92.3,0,145.67-7.33,184.19-25.31c39.32-18.35,65.62-50,87.96-105.83l55.71,22.28c-28.13,70.33-64.62,112.87-118.29,137.92
	C562.47,5971.04,501.76,5980,400,5980z M137.97,5231.29c-2.42,8.62-5.78,25.11-8.56,55.65c-3.02,33.21-4.86,77.38-5.45,131.29
	c-0.65,59.03,0.25,122.48,1.53,179.68c30.87-50.04,70.33-90.38,112.04-133.03c29.88-30.56,60.55-61.91,88.17-97.56
	C277.15,5318.38,195.24,5242.11,137.97,5231.29z M403.53,5361.43c2.9,3.04,5.75,6.04,8.55,8.99C473.15,5434.63,506.79,5470,575,5470
	c31.39,0,56.54-11.87,74.76-35.29c16.84-21.65,26.49-52.52,26.49-84.71c0-59.73-31.31-120-101.25-120
	C521.09,5230,434.12,5318.29,403.53,5361.43z"/>
<path d="M1325,5980c-87.4,0-161.23-24.18-213.5-69.92c-29.44-25.76-52.14-58.26-67.47-96.59c-15.94-39.85-24.02-86.44-24.02-138.49
	c0-72.24,11.28-143.32,33.52-211.28c22.71-69.38,55.65-131.76,97.92-185.41c44.83-56.9,98.35-101.56,159.08-132.73
	c65.38-33.56,137.54-50.58,214.48-50.58v60c-289.04,0-445,267.92-445,520c0,202.5,133.23,245,245,245c30.11,0,60.34-5.9,88.89-16.97
	c-28.64-7-55.41-20.31-78.95-39.62c-57.16-46.86-89.94-124.65-89.94-213.42c0-43.64,20.29-88.96,55.66-124.34
	c35.37-35.37,80.69-55.66,124.34-55.66c50.27,0,99.77,18.79,135.81,51.55c31.57,28.7,69.19,82.95,69.19,178.45
	c0,69.08-33.07,139.7-90.73,193.76c-28.34,26.57-60.8,47.58-96.48,62.45C1404.9,5972,1365.27,5980,1325,5980z M1494.12,5845.58
	l1.39,6.93c0.92-0.83,1.83-1.67,2.73-2.52c45.61-42.76,71.77-97.43,71.77-149.99c0-125.48-78.11-170-145-170
	c-58.32,0-120,61.68-120,120c0,70.72,24.78,131.6,67.98,167.01C1406.85,5844.78,1448.74,5854.66,1494.12,5845.58z"/>
<rect x="320" y="6125" width="60" height="300"/>
<rect x="320" y="6600" width="60" height="300"/>
<path d="M1405,6200c50,0,75,100,0,100S1355,6200,1405,6200z"/>
<path d="M1405,6775c50,0,75,100,0,100S1355,6775,1405,6775z"/>
<path d="M3400,6100c25,0,50,50,50,75c0,35.36-25,50-50,50S3375,6100,3400,6100z"/>
<rect x="4295" y="6150" width="60" height="775"/>
<path d="M5400,6980c-40.69,0-74.75-21.74-95.89-61.2c-2.14-3.99-4.14-8.17-6.01-12.5c-5.07,5.87-10.31,11.54-15.65,16.92
	c-25.71,25.91-65.22,56.79-107.45,56.79c-50.64,0-85.91-15.83-104.84-47.05c-19.99-32.97-18.91-79.77,3.31-143.08
	c16.99-48.41,43.7-99.64,65.17-140.81c5.85-11.22,12.65-24.27,18.56-36.17c-7.4,1.85-15.36,4.01-23.58,6.48
	c-40.18,12.05-58.39,22.84-62.41,26.85l-42.43-42.43c14.81-14.81,44.28-28.9,87.59-41.9c28.02-8.41,64.75-16.89,83.62-16.89h12.43
	l8.79,8.79c6.44,6.44,13.25,18.22,9.14,37.76c-1.44,6.83-4.14,14.73-8.51,24.86c-7.06,16.36-17.69,36.76-30.01,60.38
	c-20.58,39.47-46.19,88.58-61.75,132.94c-20.56,58.6-14.23,82.86-8.62,92.11c7.31,12.05,25.32,18.16,53.54,18.16
	c16.84,0,41.78-15.3,66.7-40.92c14.86-15.28,28.75-33.19,39.55-50.95c-0.09-2.59-0.13-5.18-0.13-7.77c0-15.75,1.76-29.94,5.08-41.03
	c9.3-31,30.23-34.34,38.8-34.34h12.43l8.79,8.79c15.68,15.67,16.85,39.98,3.49,72.24c-2.09,5.04-4.51,10.23-7.22,15.53
	c2.67,21.34,8.92,40.56,17.8,54.52c13.63,21.45,29.2,23.93,39.73,23.93c80.29,0,133.1-79.94,163.27-147
	c38.98-86.66,56.73-189.3,56.73-248c0-14.38,0.32-29.44,0.71-45.24c-16.25,2.31-32.42,4.16-48.21,5.28
	c-65.95,4.71-112.33-4.7-141.8-28.74c-16.28-13.28-35.69-38.17-35.69-81.31c0-40.84,18.5-90.66,49.49-133.27
	c15.68-21.57,57.37-71.73,105.51-71.73c33.09,0,60.63,11.04,81.86,32.82c43.25,44.36,50.36,124.49,50.19,205.36
	c12.22-2.41,24.24-4.88,35.89-7.27c9.01-1.85,17.76-3.64,26.18-5.33l11.77,58.83c-8.32,1.67-16.98,3.44-25.89,5.27
	c-15.78,3.24-32.24,6.61-49.01,9.83c-0.01,0.39-0.02,0.77-0.03,1.16c-0.49,19.29-0.95,37.52-0.95,54.32
	c0,67.07-19.18,177.37-62.02,272.61c-23.83,52.97-52.25,95.27-84.49,125.72C5493.68,6960.93,5448.76,6980,5400,6980z M5550,6230
	c-8.81,0-32.08,12.77-56.99,47.02c-23.45,32.24-38.01,69.78-38.01,97.98c0,21.25,7.77,30.05,13.62,34.82
	c11.57,9.43,38.24,19.75,99.61,15.38c17.33-1.24,35.44-3.47,53.75-6.28c0.64-70.74-3.42-143.8-33.07-174.21
	C5579.12,6234.67,5566.76,6230,5550,6230z"/>
<path d="M2641.76,4978.85c-84.04-24.01-224.69-64.2-344.5-117.12c-66.15-29.22-118.25-59.15-154.87-88.95
	c-48.03-39.1-72.39-80.41-72.39-122.77c0-44.55,40.35-91.69,123.35-144.11c62.11-39.23,132.78-71.22,172.16-84.35l13.92-4.64
	l12.21,8.14c51.22,34.15,166.72,81.79,228.36,106.16V4250h60v368.29l-40.53-15.2c-7.87-2.95-184.22-69.31-268.14-119.93
	c-38.42,14.48-96.66,42.34-145.93,73.46c-70.41,44.47-95.4,78.1-95.4,93.39c0,23.43,16.91,49.08,50.27,76.24
	c32.46,26.43,79.98,53.54,141.23,80.6c116.04,51.25,254.2,90.73,336.75,114.31L2641.76,4978.85z"/>
<path d="M2377,4480c-57.99,0-107.7-15.24-143.74-44.07c-40.08-32.06-61.26-79.06-61.26-135.93c0-56.38,20.88-108.3,58.79-146.21
	S2320.62,4095,2377,4095c54.55,0,103.12,25.47,136.76,71.73c27.07,37.23,43.24,87.05,43.24,133.27c0,46.65-16.01,90.35-45.08,123.06
	C2478.81,4460.31,2432.15,4480,2377,4480z M2377,4155c-84.02,0-145,60.98-145,145c0,108.31,101.4,120,145,120
	c82.9,0,120-60.27,120-120C2497,4241.52,2458.86,4155,2377,4155z"/>
<path d="M6201.34,989.37l-52.67-28.73l171.59-314.59l219.02,273.78c63.09-1.58,96.63-14.21,117.56-43.52
	C6683.23,839.36,6695,769.57,6695,650c0-115.84-57.58-232.28-162.12-327.86c-110.78-101.28-265.92-169.61-436.85-192.4l7.93-59.47
	c93.87,12.52,182.77,37.5,264.23,74.27c77.75,35.09,146.78,79.95,205.17,133.33c57.44,52.52,102.4,111.23,133.61,174.49
	C6738.84,516.93,6755,583.42,6755,650c0,65.55-3.47,117.09-10.61,157.56c-7.79,44.16-20.46,78.06-38.73,103.63
	c-18.93,26.5-44,44.67-76.64,55.55C6601.88,975.79,6568.83,980,6525,980h-14.42l-180.84-226.05L6201.34,989.37z"/>
<path d="M6645.67,905.1c-1.15-3.31-10.78-24.35-87.16-114.24c-44.28-52.12-104.24-119.52-178.2-200.36
	c-126.14-137.85-250.77-268.48-252.01-269.79l43.4-41.43c1.32,1.38,132.98,139.39,262.96,281.74
	c76.48,83.77,137.48,152.68,181.29,204.84C6698.44,864.08,6705,884.07,6705,900l-60,0C6645,903.15,6645.66,905.08,6645.67,905.1z"/>
<path d="M2200,6930h-20.31l-107.54-268.86l55.71-22.28l89.55,223.88c10.1-5.17,24.16-13.57,42.05-26.73
	c24.86-18.28,62.88-50.05,102.87-97.58c17.91-21.28,36.84-46.52,54.61-75.38c-82.28-62-151.41-149.17-195.86-247.43
	c-21.11-46.67-35.76-94.51-42.35-138.35c-6.94-46.16-5.15-86.43,5.33-119.68c8.46-26.83,22.35-48.07,41.29-63.13
	c20.41-16.23,45.52-24.46,74.65-24.46c51.82,0,118.02,6.24,170.41,54.89c56.92,52.85,84.59,142.84,84.59,275.11
	c0,73.37-15.56,146.27-46.25,216.67c-25.41,58.29-60.64,113.92-104.72,165.35c-44.78,52.25-87.1,86.73-114.72,106.45
	C2262.79,6907.42,2225.77,6930,2200,6930z M2300,6130c-30.25,0-48.9,14.5-58.72,45.63c-15.94,50.56-2.74,133.05,34.46,215.26
	c39.1,86.42,99.02,163.25,170.29,218.87c28.39-59.4,48.97-129.98,48.97-209.76c0-113.07-22.01-190.84-65.41-231.14
	C2392.71,6134.62,2343.39,6130,2300,6130z"/>
</svg>
