<?xml version="1.0" encoding="iso-8859-1"?>
<!-- Generator: Adobe Illustrator 15.0.0, SVG Export Plug-In . SVG Version: 6.00 Build 0)  -->
<svg version="1.2" baseProfile="tiny" id="&#x30EC;&#x30A4;&#x30E4;&#x30FC;_1"
	 xmlns="http://www.w3.org/2000/svg" xmlns:xlink="http://www.w3.org/1999/xlink" x="0px" y="0px" width="7000px" height="7000px"
	 viewBox="0 0 7000 7000" xml:space="preserve">
<path d="M1500,980c-21.18,0-44.64-16.3-69.74-48.44c-16-20.5-41.75-59.3-34.36-88.84c4.02-16.07,20.31-25.85,36.38-21.83
	c15.14,3.79,24.69,18.46,22.39,33.59c0.98,4.67,6.69,18.42,19.93,36.26c12.88,17.37,23.79,26.54,28.38,29.22
	c54.74-1.01,106.13-29.94,145-81.73c47.23-62.93,72.13-153.95,72.03-263.21c-0.17-166.63-77.3-345.77-249.24-370.33
	c-16.4-2.34-27.8-17.54-25.46-33.94s17.54-27.8,33.94-25.46c47.05,6.72,90.58,23.48,129.37,49.8c36.59,24.83,68.41,57.76,94.57,97.9
	c24.95,38.28,44.25,82.3,57.34,130.83c12.87,47.72,19.43,98.57,19.48,151.14c0.12,122.38-28.94,225.87-84.04,299.29
	c-25.56,34.06-55.85,60.57-90.02,78.78C1572.37,970.93,1536.73,980,1500,980z"/>
<path d="M1399.98,930c-6.57,0-13.19-2.15-18.72-6.58c-12.94-10.35-15.04-29.23-4.69-42.17c37.1-46.38,51.4-156.46,40.25-309.96
	c-9.41-129.67-34.59-251.39-46.05-283.11c-6.39-17.69-19.82-38.13-36.86-56.07c-17.09-18-30.66-25.89-35.08-27.15
	c-16.03-0.61-28.85-13.8-28.85-29.98c0-16.57,13.43-30,30-30c26.49,0,54.55,22.66,73.41,41.67c24.47,24.65,44.08,54.23,53.8,81.14
	c14.56,40.31,39.84,166.69,49.45,299.14c5.46,75.29,5.07,141.44-1.17,196.62c-7.88,69.62-25.4,121.82-52.07,155.16
	C1417.5,926.15,1408.78,930,1399.98,930z"/>
<path d="M1325.04,980c-1.41,0-2.84-0.1-4.28-0.31c-100.3-14.33-173.06-51.69-222.43-114.23C1045.62,798.7,1020,703.69,1020,575
	c0-128.51,36.6-230.28,108.79-302.46c48.14-48.14,111.7-82.33,188.94-101.64c16.08-4.02,32.36,5.76,36.38,21.83
	c4.02,16.07-5.75,32.36-21.83,36.38C1164.88,270.95,1080,387.33,1080,575c0,114.67,21.4,197.52,65.42,253.29
	c39.37,49.87,99.5,79.97,183.82,92.02c16.4,2.34,27.8,17.54,25.46,33.94C1352.56,969.21,1339.73,980,1325.04,980z"/>
<path d="M2600,679c-16.57,0-30-13.43-30-30V350c0-18.36-10.69-76.11-42.47-128.11C2490.26,160.92,2438.95,130,2375,130
	c-16.57,0-30-13.43-30-30s13.43-30,30-30c85.06,0,155.51,41.71,203.72,120.61C2616.34,252.17,2630,319.66,2630,350v299
	C2630,665.57,2616.57,679,2600,679z"/>
<path d="M2200,680c-16.57,0-30-13.43-30-30V375c0-41.71,13.62-115.35,43.51-178.47c17.2-36.31,37.86-65.4,61.41-86.47
	C2304.63,83.48,2338.3,70,2375,70c16.57,0,30,13.43,30,30s-13.43,30-30,30c-52.55,0-87.34,50.15-107.26,92.22
	C2242.96,274.52,2230,338.67,2230,375v275C2230,666.57,2216.57,680,2200,680z"/>
<path d="M2400,980c-114.33,0-199.56-30.61-250.92-56.29c-27.99-14-52.58-29.9-71.1-45.98c-22.5-19.54-32.99-36.3-32.99-52.73
	c0-14.19,5.18-32.58,68.83-114.31c31.26-40.13,61.96-76.52,63.25-78.05c5.31-6.29,12.98-10.12,21.2-10.59
	c8.23-0.47,16.27,2.45,22.27,8.09C2263.09,670.13,2330.17,694,2400,694c67.09,0,110.79-21.58,183.36-69.96
	c12.79-8.53,29.95-6.01,39.75,5.83c0.32,0.38,31.98,38.67,63.22,79.53C2749.83,792.46,2755,810.9,2755,825
	c0,39.31-38.39,78.92-105.32,108.66C2582.45,963.54,2493.78,980,2400,980z M2107.6,823.06c9.63,10.65,35.53,32.16,80.42,52.78
	C2231.87,895.99,2304.24,920,2400,920c85.57,0,165.59-14.62,225.32-41.16c30.3-13.47,47.39-26.46,56.4-34.99
	c8.26-7.83,11.65-13.73,12.79-16.81c-3.17-6.78-15.3-28.56-60.23-86.92c-14.96-19.44-29.69-37.89-40.47-51.25
	C2525.87,732.09,2473.61,754,2400,754c-40.83,0-82.11-6.94-119.35-20.08c-28.57-10.08-54.25-23.4-76.67-39.75
	c-10.54,12.82-24.33,29.82-38.33,47.67C2127.54,790.41,2113.05,813.2,2107.6,823.06z"/>
<path d="M3400,980c-40.27,0-79.9-8-117.79-23.79c-35.68-14.87-68.14-35.88-96.48-62.45C3128.07,839.7,3095,769.08,3095,700
	c0-7.96,3.16-15.59,8.79-21.21c20.61-20.61,60.71-18.74,161.7-8.64c26.83,2.68,54.58,5.46,77.15,6.56
	c16.3,0.8,26.36,0.54,32.46,0.03c13.34-66.37,1.35-217.01-4.91-273.43c-1.83-16.47,10.04-31.3,26.5-33.13
	c16.48-1.83,31.3,10.04,33.13,26.5c0.26,2.34,6.39,57.95,9.52,123.76c4.32,90.81,0.66,154.41-10.88,189.04
	c-1.47,4.42-3.95,8.43-7.25,11.73c-20.61,20.61-60.71,18.74-161.7,8.64c-26.83-2.68-54.58-5.46-77.15-6.56
	c-11.35-0.55-19.67-0.6-25.74-0.4c6.35,45.23,31.13,90.52,70.15,127.1C3274.23,894.48,3337.37,920,3400,920
	c61.5,0,124.91-24.63,174-67.58c43.8-38.32,71-87.15,71-127.42c0-16.57,13.43-30,30-30s30,13.43,30,30
	c0,57.93-34.2,122.45-91.49,172.58c-28.62,25.04-60.92,44.94-96,59.14C3479.33,972.17,3439.8,980,3400,980z"/>
<path d="M3269.42,541.12c-27.78,0-61.35-3.91-100.3-11.7c-33.87-6.77-66.42-23.86-89.29-46.86
	c-30.56-30.74-42.72-71.03-34.24-113.44c7.93-39.66,32.07-73.99,73.79-104.94c33.87-25.13,75.6-45.46,115.96-65.12
	c55.49-27.03,112.87-54.99,140.67-92.05c5.22-6.96,13.2-11.31,21.87-11.92c8.68-0.62,17.19,2.56,23.34,8.71
	c11.49,11.49,51.02,27.87,89.26,43.71c105.18,43.58,249.24,103.27,269.12,222.57c6.77,40.63-3.96,80.07-30.21,111.06
	C3723.84,511.27,3685.76,530,3650,530c-51.89,0-198.71-24.37-204.93-25.41c-16.34-2.72-27.38-18.18-24.66-34.52
	s18.18-27.38,34.52-24.66C3495.98,452.25,3611.04,470,3650,470c18.33,0,39.37-10.86,53.6-27.66c10.37-12.25,21.71-33.01,16.81-62.41
	c-14.41-86.47-140.7-138.8-232.9-177c-33.22-13.76-61.76-25.59-82.98-37.88c-37.41,36.54-90.91,62.61-142.92,87.95
	c-74.99,36.53-145.82,71.04-157.19,127.89c-4.63,23.14,1.25,42.56,17.96,59.37c14.48,14.56,36.35,25.9,58.51,30.33
	c92.12,18.42,121.96,7.35,125.85,5.61c11.76-9.05,28.7-8.18,39.48,2.59c11.72,11.72,11.72,30.71,0,42.43
	c-4.97,4.97-17.45,13.91-45.09,17.86C3291.58,540.44,3281,541.12,3269.42,541.12z"/>
<path d="M5425,980c-116.57,0-208.89-19.23-274.41-57.16C5081.51,882.84,5045,823.08,5045,750c0-26.37,12.93-51.92,38.44-75.94
	c19.44-18.31,46.66-36.42,83.22-55.38c64.93-33.67,151.6-65.77,235.42-96.81c82.11-30.41,167.01-61.85,228.64-93.81
	C5708.4,387.78,5720,361.86,5720,350c0-108.02-188.74-195-345-195c-166.37,0-249.74,121.68-270.58,225.88
	c-3.25,16.25-19.06,26.78-35.3,23.53c-16.25-3.25-26.78-19.05-23.53-35.3c14.55-72.74,51-139.46,102.65-187.88
	C5208.41,124.82,5286.83,95,5375,95c45.22,0,93.59,6.28,139.88,18.17c46.02,11.82,90.25,29.23,127.92,50.36
	C5731.28,213.16,5780,279.38,5780,350c0,26.37-12.93,51.92-38.44,75.94c-19.44,18.31-46.66,36.42-83.22,55.38
	c-64.93,33.67-151.6,65.77-235.42,96.81c-82.11,30.41-167.01,61.85-228.64,93.81C5116.6,712.22,5105,738.14,5105,750
	c0,108.04,116.64,170,320,170c137.57,0,180.65-43.07,203.79-66.21c11.71-11.72,30.71-11.72,42.43,0c11.72,11.72,11.72,30.71,0,42.43
	C5644.02,923.41,5587.43,980,5425,980z"/>
<path d="M4149.56,477.91c-40,0-81.34-10.25-112.97-26.07c-14.82-7.41-20.83-25.43-13.42-40.25c7.41-14.82,25.43-20.83,40.25-13.42
	c42.94,21.47,111.15,28.73,144.27,5.33c49.68-35.11,84.46-92.21,82.36-119.81c-0.4-5.32-1.89-6.07-3.46-6.85
	c-7.35-3.68-35.69-4.23-95.24,17.04c-41.56,14.84-77.56,32.78-77.92,32.96c-14.82,7.41-32.84,1.4-40.25-13.42
	c-7.41-14.82-1.4-32.84,13.42-40.25c1.6-0.8,39.64-19.75,84.58-35.79c67.92-24.26,113.13-28.77,142.26-14.21
	c21.59,10.8,34.54,30.68,36.46,55.98c2.58,33.96-14.9,69.01-30.01,92.43c-19.98,30.96-47.52,59.7-77.56,80.93
	C4216.96,470.41,4183.75,477.91,4149.56,477.91z"/>
<path d="M4575,980c-60.67,0-115.2-52.77-121.21-58.79c-11.72-11.72-11.72-30.71,0-42.43c11.71-11.72,30.71-11.72,42.43,0
	c11.34,11.23,47.04,40.21,77.23,41.19c3.64-1.82,13.94-9.97,28.3-31.66c15.13-22.86,30.16-53.52,43.47-88.66
	C4663.8,750.54,4695,649.55,4695,525c0-73.75-3.68-129.25-11.24-169.69c-8.47-45.26-20.15-62.73-28.47-69.41
	c-4.27-3.43-10.44-6.54-23.84-3.6c-5.04,1.11-23.06,7.32-69.71,41.68C4573.87,374.99,4580,434.03,4580,500
	c0,51.43-9.04,105.28-26.86,160.06c-16.46,50.6-40.21,100.35-68.65,143.85c-28.68,43.86-61.72,80.73-95.55,106.62
	C4350.4,940.04,4312.06,955,4275,955c-64.44,0-124.13-24.21-168.09-68.16C4068.14,848.07,4045,796.92,4045,750
	c0-12.25,5.73-22.36,26.65-47.03c12.86-15.17,30.85-34.93,53.48-58.74c46.54-48.99,107.32-109.36,166.75-165.63
	c48.52-45.94,120.18-111.95,186.09-165.46c5.16-4.19,10.13-8.18,14.93-11.98c-14.06-41.94-33.55-76.14-58.42-102.39
	C4390.64,152.49,4330.3,130,4250,130c-134.54,0-145,151.55-145,198c0,16.57-13.43,30-30,30s-30-13.43-30-30
	c0-33.61,4.51-98.57,34.69-156.07C4114.69,105.25,4173.58,70,4250,70c96.31,0,173.03,29.44,228.03,87.49
	c26.95,28.45,48.77,64.01,65.07,105.98c42.14-29.43,62.81-36.99,75.45-39.77c35.78-7.87,60.17,4.05,74.33,15.43
	c24.24,19.48,40.08,52.89,49.85,105.14C4750.99,388.39,4755,447.51,4755,525c0,140.98-36.59,253.49-58.4,308.02
	c-16.14,40.34-34.44,74.93-52.92,100.01C4620.39,964.64,4597.93,980,4575,980z M4105.27,756.83c2.26,29.28,18.71,62.23,44.07,87.58
	C4172.42,867.49,4212.95,895,4275,895c48.26,0,109.29-47.48,159.27-123.92C4487.95,688.98,4520,587.64,4520,500
	c0-49.89-3.65-94.86-10.93-134.81c-46.53,38.16-102.75,88.09-163.56,145.28c-57.42,54-115.5,111.22-163.53,161.12
	C4134.44,720.98,4112.65,746.7,4105.27,756.83z"/>
<path d="M2350,3980c-54.14,0-101.66-10.48-141.23-31.14c-39.41-20.58-72.01-51.75-96.9-92.63c-45-73.93-66.87-182.27-66.87-331.22
	c0-64.62,6.42-125.97,19.09-182.36c12.92-57.52,32.03-108.45,56.8-151.38c26.3-45.59,58.49-81.28,95.67-106.06
	c40.01-26.67,84.9-40.19,133.44-40.19c109.6,0,196.85,33.67,259.35,100.06c46.56,49.47,78.55,116.44,95.07,199.05
	c3.25,16.25-7.29,32.05-23.53,35.3c-16.25,3.25-32.05-7.29-35.3-23.53C2612.29,3189.41,2512.84,3105,2350,3105
	c-90.98,0-146.55,63.21-177.14,116.24C2129.1,3297.09,2105,3404.97,2105,3525c0,137.63,19.01,235.77,58.13,300.03
	c39.44,64.79,98.82,94.97,186.87,94.97c97.63,0,187.25-30.73,252.35-86.53C2661.23,3783,2695,3716.13,2695,3650
	c0-16.57,13.43-30,30-30s30,13.43,30,30c0,83.67-41.41,167.15-113.6,229.03C2565.43,3944.14,2461.95,3980,2350,3980z"/>
<path d="M2472.26,3597.21c-46.22,0-75.95-8.46-93.48-25.99c-20.22-20.22-34.17-51.8-39.29-88.94
	c-5.04-36.56-0.79-73.68,11.99-104.53c10.22-24.67,25.31-44.39,44.84-58.61c22.02-16.02,48.49-24.15,78.67-24.15
	c25.86,0,78.28,6.15,132.28,19.65c66.17,16.54,112.92,38.12,138.94,64.14c11.72,11.72,11.72,30.71,0,42.43
	c-11.72,11.72-30.71,11.71-42.43,0c-17.45-17.45-57.93-35.08-111.06-48.36c-46.89-11.72-94.71-17.85-117.72-17.85
	c-32.61,0-55.52,15.38-68.08,45.71c-18.77,45.31-7.73,106.05,14.3,128.08c0.61,0.61,16.01,14.85,106.92,4.89
	c57.69-6.32,122.66-19.85,165.66-28.8c35.25-7.34,47.87-9.88,56.21-9.88c16.57,0,30,13.43,30,30c0,16.38-13.13,29.69-29.44,30
	c-5.25,0.44-26.11,4.79-44.54,8.63c-44.12,9.19-110.79,23.07-171.36,29.7C2511.14,3595.9,2490.43,3597.21,2472.26,3597.21z"/>
<path d="M550,1980c-10.58,0-20.61-5.62-26.04-15.12c-0.25-0.43-24.99-43.63-55.34-89.13c-55.16-82.69-78.01-96.91-82.03-98.92
	c-14.82-7.41-20.83-25.43-13.42-40.25c7.41-14.82,25.43-20.83,40.25-13.42c16.47,8.24,45.31,29.59,105.29,119.57
	c18.34,27.51,34.42,53.72,44.86,71.15c37.6-15.94,71.79-48.75,97.88-94.4c27.47-48.08,45.66-109.62,53.74-180.9
	c-13.25,0.77-27.58,1.27-42.71,1.27c-87.29,0-201.34-16.52-291.7-91.82C220,1414.05,220,1276.71,220,1225
	c0-31.76,14.41-57.99,41.69-75.85C291.62,1129.53,336.87,1120,400,1120c116.44,0,214.13,43.75,282.5,126.52
	c31.89,38.6,56.46,84.69,73.05,136.99C771.77,1434.68,780,1490.69,780,1550c0,7.37-0.08,14.68-0.25,21.92
	c9.52-1.21,15.55-1.92,20.25-1.92c16.57,0,30,13.43,30,30c0,16.52-13.35,29.92-29.85,30c-2.11,0.08-9.22,0.98-15.5,1.78
	c-2.61,0.33-5.45,0.69-8.48,1.07c-2.98,31.06-7.7,60.6-14.13,88.36c-11.14,48.15-27.46,91.23-48.49,128.04
	c-39.03,68.29-94.52,114.41-156.27,129.85C554.85,1979.71,552.41,1980,550,1980z M400,1180c-62.75,0-91.97,10.52-105.44,19.34
	c-10.35,6.78-14.56,14.21-14.56,25.66c0,48.16,0,160.95,139.21,276.95c92.77,77.31,219.91,81.69,300.34,76.2
	c0.31-9.26,0.46-18.65,0.46-28.16C720,1325.23,594.39,1180,400,1180z"/>
<path d="M250.01,1980c-1.95,0-3.92-0.19-5.89-0.58c-69.87-13.97-127.81-61.48-167.57-137.37C39.55,1771.42,20,1679.08,20,1575
	c0-70.73,7.73-134.41,22.97-189.28c18.15-65.34,47.02-118.14,85.82-156.93c11.72-11.72,30.71-11.72,42.43,0s11.72,30.71,0,42.43
	C95.82,1346.6,80,1478.02,80,1575c0,176.91,60.77,307.24,156.51,340.33c12.56-19.5,33.78-51.83,57.73-85.75
	c71.12-100.76,101.03-123.25,117.34-131.41c14.82-7.41,32.84-1.4,40.25,13.42c7.41,14.82,1.4,32.84-13.42,40.25
	c-4.09,2.05-27.91,17.08-95.16,112.34c-36.59,51.84-67.51,101.23-67.82,101.72C269.89,1974.78,260.21,1980,250.01,1980z"/>
<path d="M1049.97,1980c-5.43,0-10.93-1.47-15.87-4.56c-14.05-8.78-18.32-27.29-9.54-41.34c80.04-128.07,279.26-320.05,361.2-396.64
	c96.34-90.06,274.2-247.4,329.75-265.92c15.72-5.24,32.71,3.26,37.95,18.97c5.24,15.72-3.26,32.71-18.97,37.95
	c-2.32,0.77-25.14,9.56-110.06,78.78c-57.86,47.16-128.06,108.97-197.69,174.05c-167.05,156.15-298.37,299.93-351.3,384.61
	C1069.75,1975.01,1059.97,1980,1049.97,1980z"/>
<path d="M1074.99,1380.01c-3.71,0-7.48-0.69-11.13-2.15c-15.38-6.15-22.87-23.61-16.71-39c29.17-72.92,71.31-130.81,125.26-172.06
	c62.3-47.64,138.87-71.79,227.6-71.79c44.89,0,91.64,8.91,138.96,26.49c41.21,15.31,82.39,37.25,119.1,63.48
	C1717.01,1227.07,1780,1292.54,1780,1350c0,16.57-13.43,30-30,30s-30-13.43-30-30c0-4.18-1.71-20.03-23.76-48.38
	c-17.92-23.04-43.18-46.5-73.05-67.83c-70.1-50.07-151.45-78.79-223.19-78.79c-177.44,0-259.53,112.1-297.15,206.14
	C1098.16,1372.87,1086.9,1380.01,1074.99,1380.01z"/>
<path d="M1600,1980c-7.68,0-15.36-2.93-21.21-8.79c-9.24-9.24-13.09-22.29-15.85-53.7c-1.68-19.15-2.85-45.75-3.48-79.06
	c-1.04-55.33-0.65-130.5,1.17-223.42c3.1-157.85,9.33-314.67,9.39-316.24c0.66-16.56,14.62-29.43,31.17-28.78
	c16.56,0.66,29.44,14.62,28.78,31.17c-0.06,1.46-5.87,147.56-9.04,299.23c-1.86,88.89-2.46,162.24-1.78,217.99
	c1.04,86.14,5,110.01,6.49,116.01c7.02,11.55,5.55,26.81-4.43,36.79C1615.36,1977.07,1607.68,1980,1600,1980z"/>
<path d="M2074.98,1980.01c-4.51,0-9.09-1.02-13.39-3.17c-14.82-7.41-20.83-25.43-13.42-40.25c4.27-8.55,14.58-41.11,17.94-158.47
	c2.06-71.95,1.27-165.14-2.33-276.99c-6.16-191-18.57-372.25-18.7-374.06c-1.14-16.53,11.34-30.85,27.86-31.99
	c16.52-1.15,30.85,11.34,31.99,27.86c0.13,1.82,12.61,184.02,18.81,376.1c3.65,113.1,4.44,207.55,2.35,280.73
	c-3.67,128.49-15.6,166.35-24.25,183.65C2096.58,1973.93,2085.98,1980.01,2074.98,1980.01z"/>
<path d="M2375,1980c-8.57,0-16.73-3.66-22.42-10.07c-0.49-0.55-49.92-55.97-110.53-110.47C2137.21,1765.18,2090.3,1755,2075,1755
	c-16.57,0-30-13.43-30-30s13.43-30,30-30c49.8,0,117.7,39.32,207.57,120.2c47.83,43.05,88.02,85.57,105.52,104.59
	c120.47-3.83,306.91-63.38,306.91-394.79c0-311.38-223.79-345-320-345c-16.57,0-30-13.43-30-30s13.43-30,30-30
	c44.13,0,86.67,5.93,126.43,17.63c47.03,13.83,88.69,35.42,123.81,64.16c40.5,33.13,72.03,75.61,93.73,126.25
	c23.9,55.77,36.02,122.04,36.02,196.97c0,157.54-39.76,277.18-118.16,355.59C2571.8,1945.62,2481.26,1980,2375,1980z"/>
<path d="M5725.02,1980.01c-11.01,0-21.6-6.08-26.86-16.59c-6.09-12.17-3.12-26.5,6.35-35.34c2.87-7.7,10.3-37.79,12.23-145.35
	c1.27-70.63,0.02-163.59-3.7-276.29c-6.35-192.36-17.87-377.72-17.98-379.57c-1.03-16.54,11.53-30.78,28.07-31.81
	c16.54-1.03,30.78,11.53,31.81,28.07c0.13,2,12.6,202.8,18.79,404.07c3.65,118.54,4.44,214.17,2.34,284.24
	c-1.26,42.34-3.63,76.02-7.02,100.12c-4.54,32.25-11.49,55.7-30.65,65.28C5734.11,1978.99,5729.53,1980.01,5725.02,1980.01z"/>
<path d="M5425,1980c-41.52,0-148.12-8.28-240.98-85c-42.69-35.26-76.13-80.14-99.4-133.38c-26.29-60.15-39.62-131.35-39.62-211.62
	c0-75.02,13.52-142.81,40.19-201.48c23.88-52.54,58.15-97.65,101.86-134.07c38.14-31.78,82.41-56.21,131.59-72.6
	c42.89-14.3,88.31-21.85,131.36-21.85c16.57,0,30,13.43,30,30s-13.43,30-30,30c-119.33,0-345,77.33-345,370
	c0,133.97,39.44,234.49,117.23,298.75c77.19,63.77,166.21,71.13,201.86,71.25c4.63-1.05,35.72-11.29,155.22-109.46
	c65.58-53.87,125.02-107.31,125.62-107.84c12.32-11.08,31.28-10.08,42.37,2.23c11.08,12.32,10.08,31.28-2.23,42.37
	c-0.63,0.57-63.82,57.37-132.32,113.42c-40.54,33.17-75.09,59.67-102.7,78.79C5458.64,1975.09,5438.79,1980,5425,1980z"/>
<path d="M5075,2980.01c-3.5,0-7.06-0.62-10.53-1.92c-15.51-5.82-23.37-23.11-17.56-38.62c29.22-77.91,38.3-242.19,26.27-475.08
	c-9.21-178.2-27.78-334.26-27.97-335.81c-1.97-16.45,9.76-31.39,26.21-33.36c16.45-1.97,31.39,9.76,33.36,26.21
	c0.19,1.57,18.98,159.34,28.3,339.52c12.66,244.68,2.56,412.76-30,499.58C5098.57,2972.58,5087.14,2980.01,5075,2980.01z"/>
<path d="M5123.24,2494.81c-25.11,0-47.64-6.86-66.23-20.81c-13.25-9.94-15.94-28.75-6-42c9.94-13.25,28.75-15.94,42-6
	c7.93,5.95,18.33,8.84,30.5,8.84c27.15,0,63.13-14.39,100.29-41.29c41.56-30.08,78.75-71.61,102.03-113.93
	c17.14-31.15,34.65-76.91,20.76-118.02c-5.3-15.7,3.12-32.72,18.82-38.02c15.7-5.31,32.72,3.12,38.02,18.82
	c16.52,48.9,7.87,106.35-25.03,166.15c-27.4,49.81-70.93,98.51-119.42,133.61C5210.89,2476.95,5163.72,2494.81,5123.24,2494.81z"/>
<path d="M5350,2982c-16.57,0-30-13.43-30-30s13.43-30,30-30c57.61,0,345-16.63,345-345c0-143.37-47.49-262.03-133.71-334.13
	c-61.89-51.74-138.88-75.42-205.97-63.35c-16.3,2.94-31.91-7.9-34.84-24.21c-2.94-16.31,7.9-31.9,24.21-34.84
	c84.37-15.18,179.73,13.36,255.09,76.37c47.23,39.49,84.59,90.17,111.05,150.65c29.32,67.02,44.18,144.24,44.18,229.51
	c0,75.1-13.6,141.74-40.41,198.05c-24,50.39-58.59,92.77-102.84,125.95c-37.76,28.32-82.12,49.69-131.85,63.5
	C5438.69,2975.95,5393.77,2982,5350,2982z"/>
<path d="M3100,1980c-7.68,0-15.36-2.93-21.21-8.79c-11.13-11.13-11.69-28.82-1.68-40.61c2.59-5.55,11.79-33.97,14.39-159.86
	c1.59-77.16,0.54-178.93-3.14-302.49c-6.28-210.85-18.19-414.46-18.31-416.49c-0.97-16.54,11.65-30.74,28.19-31.71
	c16.55-0.97,30.74,11.65,31.71,28.19c0.13,2.13,12.6,215.46,18.79,432.16c3.64,127.56,4.43,231.42,2.34,308.7
	c-1.26,46.49-3.59,84.01-6.95,111.51c-4.7,38.58-11.34,59.03-22.92,70.61C3115.36,1977.07,3107.68,1980,3100,1980z"/>
<path d="M3375,1980c-6.15,0-12.16-1.89-17.2-5.42c-0.6-0.42-61.23-42.81-127.59-85.14c-123.84-78.99-152.2-84.11-155.48-84.44
	c-16.44-0.15-29.72-13.52-29.72-30c0-16.57,13.43-30,30-30c0,0,0,0,0,0c19.77,0,57.2,10.95,184.86,92.19
	c54.34,34.58,105.34,69.53,124.43,82.73c50.53-0.84,119.19-8.83,176.35-40.01C3634.23,1839.77,3670,1772.74,3670,1675
	c0-96.28-40.37-169.67-119.97-218.12c-67.41-41.03-143.97-51.88-175.03-51.88c-33.31,0-86.46,36.27-138.71,94.65
	c-22.67,25.33-43.76,53.27-59.37,78.68c-17.37,28.26-21.7,43.29-21.92,46.77c-0.05,16.52-13.46,29.9-30,29.9
	c-16.57,0-30-13.43-30-30c0-44.77,59.76-123.95,95.08-163.68C3228.69,1417.88,3304.07,1345,3375,1345c0,0,0,0,0,0
	c39.6,0,127.6,12.77,206.22,60.62C3678.55,1464.87,3730,1558.02,3730,1675c0,63.71-13.81,118.88-41.04,163.95
	c-23.51,38.91-57.01,70.41-99.59,93.64C3517.52,1971.77,3433.14,1980,3375,1980z"/>
<path d="M4125.04,1980c-1.41,0-2.84-0.1-4.28-0.31c-16.4-2.34-27.8-17.54-25.46-33.94c0.19-1.31,18.79-132.58,31.06-304.61
	c16.17-226.68,14.08-420.98-6.06-561.91c-2.34-16.4,9.05-31.6,25.46-33.94c16.41-2.34,31.6,9.05,33.94,25.46
	c11.61,81.23,17.49,178.34,17.49,288.62c0,87.8-3.71,184.2-11.01,286.51c-12.43,174.04-31.29,307.03-31.47,308.36
	C4152.56,1969.21,4139.73,1980,4125.04,1980z"/>
<path d="M4425,1630h-50c-4.66,0-9.25-1.08-13.42-3.17c-0.63-0.32-64-32.06-129.59-69.54c-123.32-70.47-149.66-100.55-158.82-118.88
	c-7.41-14.82-1.4-32.84,13.42-40.25c14.82-7.41,32.84-1.4,40.25,13.42c1.27,2.41,15.93,25.68,135.62,94.01
	c52.04,29.71,102.44,55.63,119.7,64.4H4425c70.52,0,128.41-13.28,172.07-39.47c64.98-38.99,97.93-108.14,97.93-205.52
	c0-87.9-33.26-154.09-98.85-196.72c-68.92-44.8-148.42-48.28-171.15-48.28h-75c-16.57,0-30-13.43-30-30c0-16.57,13.43-30,30-30
	c0,0,0,0,0,0l75,0c21.64,0,55.93,2.12,96.34,12.22c40.04,10.01,76.21,25.4,107.51,45.75c38.24,24.86,68.36,56.65,89.52,94.5
	c24.3,43.47,36.63,94.79,36.63,152.53c0,63.35-12.26,118.09-36.43,162.73c-21.23,39.19-51.72,70.9-90.63,94.25
	C4574.82,1613.84,4506.55,1630,4425,1630z"/>
<path d="M4125,1255c-16.57,0-30-13.43-30-30s13.43-30,30-30c33.04,0,83.73-28.44,142.75-80.08c47.83-41.85,84.12-84.03,84.48-84.45
	c10.78-12.58,29.72-14.04,42.3-3.25c12.58,10.78,14.04,29.72,3.25,42.3c-1.59,1.85-39.49,45.9-90.52,90.55
	C4235.27,1223.06,4173.95,1255,4125,1255z"/>
<path d="M6400,1980c-69.58,0-149.75-21.25-214.46-56.84c-35.91-19.75-65.93-43.05-89.21-69.25c-26.66-29.99-43.73-62.98-50.75-98.03
	c-3.25-16.25,7.29-32.05,23.53-35.3c16.25-3.25,32.05,7.29,35.3,23.53c9.56,47.78,48.64,92.7,110.04,126.47
	c56.25,30.94,125.62,49.41,185.54,49.41c77.98,0,152.58-13.57,210.06-38.2c63.86-27.37,101.04-65.28,110.53-112.68
	c3.25-16.25,19.06-26.78,35.3-23.53c16.25,3.25,26.78,19.05,23.53,35.3c-13.4,66.98-63.79,120.95-145.73,156.07
	C6568.92,1964.71,6485.92,1980,6400,1980z"/>
<path d="M6074.97,1780.01c-14.01,0-26.53-9.86-29.38-24.12c-4.55-22.73,15.51-35.69,23.06-40.56c7.38-4.77,17.59-10.48,32.13-17.97
	c25.92-13.36,62.37-30.67,104.57-50.72c92.18-43.79,218.43-103.76,316.11-161.88c154.52-91.93,149.42-127.4,149.12-128.87
	C6645.42,1230.1,6544.27,1155,6400,1155c-150.38,0-271.93,82.61-295.58,200.88c-3.25,16.25-19.05,26.78-35.3,23.53
	c-16.25-3.25-26.78-19.05-23.53-35.3c13.95-69.73,55.89-132.88,118.1-177.81c64.59-46.65,146.31-71.3,236.31-71.3
	c45.56,0,88.15,6.42,126.58,19.09c36.89,12.16,70.06,30.07,98.59,53.26c53.82,43.73,89.87,104.85,104.25,176.78
	c6.33,31.63-10.13,65.1-50.29,102.33c-29.02,26.89-70.55,56.29-126.98,89.86c-100.08,59.54-227.79,120.21-321.04,164.51
	c-54.14,25.72-115.06,54.66-130.92,65.5c-4.25,6.55-11.03,11.45-19.29,13.1C6078.9,1779.81,6076.92,1780.01,6074.97,1780.01z"/>
<path d="M6224.98,1805.01c-4.51,0-9.09-1.02-13.39-3.17c-14.82-7.41-20.83-25.43-13.42-40.25c10.33-20.66,26.1-83.49,15.65-272.1
	c-6.11-110.22-18.46-209.77-18.58-210.76c-2.05-16.44,9.61-31.43,26.05-33.49c16.43-2.06,31.43,9.61,33.49,26.05
	c0.13,1.01,12.7,102.32,18.94,214.56c8.71,156.75,1.55,255.73-21.87,302.58C6246.58,1798.93,6235.98,1805.01,6224.98,1805.01z"/>
<path d="M400,2980c-59.6,0-145.5-5.28-216.29-30.43C89.73,2916.18,70,2863.4,70,2825c0-41.96,15.88-79.67,47.2-112.11
	c22.34-23.13,52.33-43.7,94.38-64.73c14.82-7.41,32.84-1.4,40.25,13.42c7.41,14.82,1.4,32.84-13.42,40.25
	C162.42,2739.83,130,2776.66,130,2825c0,27.75,24.83,50.64,73.79,68.03C252.74,2910.42,322.43,2920,400,2920
	c86.4,0,159.42-18.72,211.18-54.13C666.8,2827.81,695,2772.01,695,2700c0-10.93-0.34-27.49-1.85-47.32
	c-15.96,25.66-34.4,46.8-55.06,63.07C605.04,2741.79,566.99,2755,525,2755c-50.72,0-102.12-21.24-141-58.28
	c-41.27-39.3-64-91.41-64-146.72s22.73-107.42,64-146.72c38.89-37.04,90.28-58.28,141-58.28c71.99,0,129.81,33.19,169.52,96.62
	c0.32-5.9,0.48-11.46,0.48-16.61c0-164.02-115.79-270-295-270c-170.46,0-232.03,76.14-273.17,158.42
	c-7.41,14.82-25.43,20.83-40.25,13.42c-14.82-7.41-20.83-25.43-13.42-40.25c31.21-62.43,67.22-105.81,113.32-136.54
	C242.04,2113,311.88,2095,400,2095c104.73,0,193.98,32.01,258.1,92.56c31.29,29.55,55.52,65.01,72.02,105.39
	C746.63,2333.36,755,2377.79,755,2425c0,32.91-4.98,77.22-17.5,122.91c14.82,59.8,17.5,117.91,17.5,152.09
	c0,91.7-38.01,166.18-109.93,215.38C583.28,2957.66,498.54,2980,400,2980z M525,2405c-68.58,0-145,59.55-145,145s76.42,145,145,145
	c54.05,0,97.59-32.27,129.42-95.92c8.36-16.71,15.21-34.32,20.75-51.94c-3.47-12.11-7.54-24.13-12.31-35.78
	C633.58,2439.79,588.49,2405,525,2405z"/>
<path d="M3150.01,2755c-8.35,0-16.66-3.47-22.59-10.25c-10.91-12.47-9.65-31.42,2.82-42.33
	c116.98-102.36,273.56-203.07,387.89-276.61c49.56-31.88,104.88-67.46,124.67-83.73c-15.98-66.54-65.6-110.15-105.69-135.47
	c-49.65-31.35-113.28-51.61-162.11-51.61c-90.69,0-198.76,70.07-220.41,199.93c-2.72,16.34-18.18,27.38-34.52,24.66
	c-16.34-2.72-27.38-18.18-24.66-34.52c12.71-76.29,49.97-141.04,107.73-187.24c49.91-39.93,112.55-62.82,171.87-62.82
	c60.29,0,134.68,23.33,194.14,60.89c34.82,21.99,63.87,48.06,86.34,77.47c25.88,33.88,42.4,71.47,49.11,111.72
	c0.27,1.63,0.41,3.28,0.41,4.93c0,15.43-9.99,26.18-20.78,35.51c-7.22,6.24-17.52,14-31.5,23.74
	c-25.32,17.63-60.91,40.53-102.13,67.04c-112.76,72.53-267.18,171.85-380.83,271.3C3164.06,2752.56,3157.02,2755,3150.01,2755z"/>
<path d="M3350,2980c-79.32,0-148.13-19.65-204.5-58.4c-54.16-37.24-95.67-91.22-123.36-160.46c-6.15-15.38,1.33-32.84,16.71-39
	c15.38-6.15,32.84,1.33,39,16.71c47.4,118.5,141.51,181.14,272.15,181.14c83.18,0,166.26-17.82,233.93-50.19
	c69.44-33.21,117.23-78.49,138.21-130.95c6.15-15.38,23.61-22.87,39-16.71s22.87,23.61,16.71,39
	c-26.67,66.69-84.78,122.98-168.04,162.8C3534.23,2960.09,3441.96,2980,3350,2980z"/>
<path d="M3550.03,2880c-0.56,0-1.12-0.02-1.69-0.05c-16.54-0.92-29.21-15.08-28.29-31.62c0.06-1.1,6.15-111.32,9.25-227.01
	c5.8-216.11-4.09-252.81-6.24-258.13c-7.24-14.78-1.22-32.66,13.53-40.03c14.82-7.41,32.84-1.4,40.25,13.42
	c5.73,11.47,11.84,33.73,13.71,111.92c1.05,44.04,0.65,101.59-1.17,171.03c-3.1,117.83-9.35,231-9.41,232.13
	C3579.07,2867.64,3565.83,2880,3550.03,2880z"/>
<path d="M4200.04,2780c-1.41,0-2.84-0.1-4.28-0.31c-16.4-2.34-27.8-17.54-25.46-33.94c25.44-178.1,24.12-349.61,18.53-462.13
	c-6.07-122.25-18.36-203.27-18.48-204.08c-2.51-16.37,8.72-31.69,25.1-34.21c16.38-2.52,31.69,8.72,34.21,25.09
	c0.52,3.38,12.81,84.21,19.06,209.31c5.77,115.36,7.15,291.33-19.01,474.49C4227.56,2769.21,4214.73,2780,4200.04,2780z"/>
<path d="M4350,2980c-77.37,0-149.83-19.07-209.54-55.15c-58.25-35.19-100.48-85.04-118.92-140.36
	c-8.18-24.53,0.98-59.95,72.21-153.1c40.96-53.56,99.73-122.43,174.7-204.72c127.12-139.53,259.02-271.57,260.34-272.88
	c11.71-11.71,30.71-11.72,42.43,0c11.72,11.72,11.72,30.71,0,42.43c-1.24,1.24-125.03,125.17-247.75,259.19
	c-71.79,78.41-129.12,144.81-170.38,197.36c-64.28,81.87-72.7,109.07-73.8,115.16c14.39,40.86,47.04,78.27,92.2,105.56
	c50.35,30.42,112.08,46.51,178.51,46.51c131.12,0,276.26-63.69,378.79-166.21c11.71-11.72,30.71-11.72,42.43,0
	c11.72,11.72,11.72,30.71,0,42.43c-53.63,53.63-119.34,98.96-190.05,131.1C4505.33,2961.78,4425.4,2980,4350,2980z"/>
<path d="M6425,2955c-16.57,0-30-13.43-30-30c0-49.79-57.04-113.93-160.61-180.62c-84.41-54.35-170.35-91.44-171.21-91.81
	c-15.22-6.53-22.27-24.17-15.75-39.39c6.53-15.22,24.16-22.28,39.39-15.75c3.67,1.57,90.82,39.14,179.41,96.09
	c52.89,34,95.29,67.94,126.02,100.86c41.64,44.62,62.76,88.57,62.76,130.63C6455,2941.57,6441.57,2955,6425,2955z"/>
<path d="M6475,2980h-75c-16.57,0-30-13.43-30-30s13.43-30,30-30h75c145.98,0,220-124.49,220-370c0-95.33-23.67-182.55-66.66-245.6
	c-30.92-45.35-86.95-99.4-178.34-99.4c-1.25,0-12.9,0.96-37.21,34.13c-18.94,25.84-37.85,60.54-56.14,94.1
	c-15.61,28.65-30.36,55.71-44.72,76.57c-14.49,21.04-34.62,45.2-61.93,45.2h-150v-60l146.49,0c2.68-2.13,9.34-8.59,21.06-26.81
	c11.28-17.54,23.49-39.95,36.42-63.67c19.23-35.29,39.12-71.79,60.43-100.86c18.46-25.18,47.42-58.66,85.61-58.66c0,0,0,0,0,0
	c47.63,0,91.96,11.59,131.75,34.46c37.12,21.34,69.48,52,96.17,91.14c49.71,72.91,77.09,172.14,77.09,279.4
	c0,120.82-17.89,217.86-53.17,288.42c-22.06,44.13-51.25,78.5-86.75,102.17C6575.85,2966.74,6528.72,2980,6475,2980z"/>
<path d="M6074.98,2530.01c-4.51,0-9.09-1.02-13.39-3.17c-14.82-7.41-20.83-25.43-13.42-40.25c2.12-4.24,12.98-34.11,18.72-206.21
	c3.08-92.18,3.11-179.51,3.11-180.38c0-16.57,13.43-30,30-30c0,0,0,0,0,0c16.57,0,30,13.43,30,30c0,0.88-0.04,89.08-3.14,182.25
	c-1.83,54.98-4.36,101-7.52,136.79c-5.64,63.89-12.32,84-17.5,94.37C6096.58,2523.93,6085.98,2530.01,6074.98,2530.01z"/>
<path d="M181.34,3513.27c-37.47,0-84.16-14.79-129.39-69.07c-10.61-12.73-8.89-31.64,3.84-42.25c12.73-10.61,31.65-8.89,42.25,3.84
	c35.35,42.42,73.71,56.52,114.04,41.92c27.32-9.89,55.16-33.12,76.37-63.73C307.91,3355.9,320,3323.72,320,3300
	c0-82.89-60.27-120-120-120c-33.7,0-57.1,20.99-68.05,33.5c-16.37,18.71-26.95,42.85-26.95,61.5c0,16.57-13.43,30-30,30
	s-30-13.43-30-30c0-33.33,15.63-71.09,41.8-101c30.47-34.82,70.67-54,113.2-54c46.65,0,90.35,16.01,123.06,45.08
	C360.31,3198.19,380,3244.85,380,3300c0,36.36-15.39,79.43-42.23,118.16c-28.55,41.2-65.93,71.73-105.26,85.97
	C219.32,3508.91,201.69,3513.27,181.34,3513.27z"/>
<path d="M300,3980c-33.13,0-63.91-9.79-91.48-29.11c-23.85-16.71-45.46-40.8-64.22-71.61c-29.93-49.14-53.68-116.94-70.59-201.52
	C46.38,3541.14,45,3401.59,45,3375c0-16.57,13.43-30,30-30s30,13.43,30,30c0,25.6,1.33,159.92,27.54,290.99
	C155.72,3781.87,203.58,3920,300,3920c62.49,0,166.33-6.38,253.3-24.38c46.93-9.71,83.44-21.57,108.51-35.24
	c15.14-8.26,33.19-21.1,33.19-35.38c0-60.89-43.29-169.1-71.93-240.71C602.21,3532.14,595,3513.43,595,3500c0-16.57,13.43-30,30-30
	c16,0,29.08,12.53,29.95,28.31c1.67,8.29,13.43,37.7,23.83,63.7C710.95,3642.42,755,3752.56,755,3825
	c0,19.18-6.72,37.06-19.98,53.16c-10.56,12.82-25.52,24.56-44.48,34.9c-30.27,16.51-72.35,30.41-125.08,41.32
	C474.05,3973.29,365.33,3980,300,3980z"/>
<path d="M600,3330c-42.57,0-65.55-32-65.55-62.1c0-29.75,21.39-52.18,49.75-52.18c9.49,0,19.32,2.51,29.21,7.46
	c51.48,25.74,57.25,52.48,53.02,70.38c-1.92,8.15-8.3,23-29.42,30.91C627.06,3328.19,614.95,3330,600,3330z"/>
<path d="M1425,3980c-206.44,0-296.63-113.13-335.94-208.03c-30.35-73.26-36.05-147.41-35.5-196.71c0.38-33.38,3.64-58.05,6.32-72.88
	c5.76-31.92,12.79-42.48,18.91-48.6c12.21-12.21,26.93-18.66,45.01-19.73c13.24-0.78,26.76,1.26,43.87,3.85
	c20.92,3.16,46.96,7.1,82.33,7.1c33.06,0,54.17-20.23,66.05-37.2c18.67-26.67,28.95-64.95,28.95-107.8c0-54.74-16.48-120-95-120
	c-43.32,0-80.84,13.69-111.52,40.7c-23.64,20.81-34.41,42.23-34.51,42.44l0.08-0.16l-54.09-25.96c1.49-3.1,15.45-31.12,46.54-59.26
	c29.11-26.35,79.38-57.76,153.5-57.76c46.73,0,85.87,16.51,113.2,47.75c27.74,31.7,41.8,76.19,41.8,132.25
	c0,55.04-14.13,105.54-39.8,142.2c-28.35,40.49-69.26,62.8-115.2,62.8c-39.88,0-69.6-4.49-91.29-7.77
	c-19.99-3.02-30.49-4.47-35.49-2.33c-4.49,12.88-11.86,55.34-9.06,111.44c2.51,50.27,13.72,123.5,52.85,186.94
	C1218.85,3877.37,1305.66,3920,1425,3920c104.15,0,175.72-31.41,218.79-96.02c34.46-51.69,51.21-124.96,51.21-223.98
	c0-176.62-87.79-399.63-280.53-471.91c-15.51-5.82-23.37-23.11-17.56-38.62c5.82-15.51,23.11-23.38,38.62-17.56
	c99.94,37.48,183.19,112.42,240.73,216.72c50.77,92.02,78.73,202.6,78.73,311.37c0,111.25-20.05,195.4-61.29,257.27
	C1639.42,3938.71,1549.01,3980,1425,3980z"/>
<path d="M3275.04,3980c-1.64,0-3.3-0.13-4.97-0.41c-42.23-7.04-79.44-21.58-110.62-43.23c-32.09-22.28-58.85-52.81-79.54-90.74
	C3039.6,3771.7,3020,3666.83,3020,3525c0-48.23,5.53-97.71,16-143.07c11.98-51.93,30.12-98.35,53.9-137.99
	C3148.36,3146.5,3238.3,3095,3350,3095c69.55,0,134.21,15.04,192.18,44.7c51.2,26.2,96.38,63.27,134.28,110.2
	c63.86,79.07,103.54,184.48,103.54,275.1c0,55.27,0,112.43-33.79,146.21c-5.63,5.63-13.26,8.79-21.21,8.79
	c-10.74,0-25.83-4.63-36.73-26.68c-3.92-7.93-7.34-17.7-11.29-29.01c-22-62.88-48.27-119.31-126.98-119.31
	c-88.08,0-145,66.73-145,170c0,64.04,14.89,115.75,43.05,149.54c24.78,29.74,60.04,45.46,101.95,45.46
	c71.67,0,105.65-56.82,121.54-104.49c5.24-15.72,22.22-24.21,37.95-18.97c15.72,5.24,24.21,22.23,18.97,37.95
	c-14.64,43.92-36.49,78.81-64.96,103.71c-31.7,27.74-69.89,41.8-113.5,41.8c-29.37,0-56.86-5.6-81.72-16.65
	c-25.64-11.4-47.96-28.35-66.33-50.4c-18.53-22.24-32.79-49.41-42.36-80.75c-9.68-31.69-14.59-67.75-14.59-107.2
	c0-67.69,19.99-125.46,57.8-167.06c36.9-40.59,89.18-62.94,147.2-62.94c55.6,0,100.71,20.7,134.1,61.52
	c15.79,19.31,26.87,40.47,35.29,60.25c0.61-13.64,0.61-28.02,0.61-41.78c0-129.02-108.53-370-370-370
	c-90.75,0-160.95,40.31-208.65,119.81c-38.99,64.98-61.35,156.17-61.35,250.19c0,131.54,17.2,227.01,52.59,291.88
	c32.32,59.26,79.14,92.16,147.34,103.52c16.34,2.72,27.38,18.18,24.66,34.52C3302.15,3969.61,3289.44,3980,3275.04,3980z"/>
<path d="M4451.75,3980.05c-4.86,0-9.63-0.01-14.3-0.03c-4.25-0.01-8.4-0.02-12.44-0.02c-140.24,0-238.35-31.7-299.94-96.9
	c-29.15-30.87-49.73-68.4-62.91-114.74c-11.55-40.61-17.16-87.5-17.16-143.36c0-128.9,38.29-260.26,105.04-360.39
	c34.51-51.77,74.75-92.75,119.58-121.82c48.93-31.71,101.21-47.79,155.38-47.79c86.29,0,240.24,18.39,301.83,141.58
	c7.41,14.82,1.4,32.84-13.42,40.25c-14.82,7.41-32.84,1.4-40.25-13.42C4626,3169.08,4497.44,3155,4425,3155
	c-188.58,0-320,247.7-320,470c0,101.97,20.24,170.9,63.69,216.9c49.63,52.55,133.47,78.1,256.31,78.1c4.09,0,8.3,0.01,12.61,0.02
	c48.94,0.13,109.85,0.31,160.62-16.8c55.25-18.62,86.18-53.29,97.35-109.11c7.94-39.69,12.04-84.64,10.56-124.42
	c-1.25,1.88-2.54,3.74-3.87,5.58C4666.3,3725.2,4609.37,3755,4550,3755c-56.86,0-103.87-21.18-135.93-61.26
	c-28.83-36.04-44.07-85.75-44.07-143.74c0-55.15,19.69-101.81,56.94-134.92c32.7-29.07,76.4-45.08,123.06-45.08
	c90.02,0,147.56,84.75,149.96,88.36l-49.92,33.28l0.06,0.09c-0.42-0.62-42.45-61.73-100.1-61.73c-59.73,0-120,37.1-120,120
	c0,43.6,11.69,145,120,145c40.14,0,78.87-20.49,103.6-54.81c19.2-26.64,25.9-56.81,17.94-80.71c-4.4-13.2,0.85-27.69,12.69-35.01
	c11.84-7.31,27.15-5.53,36.99,4.31c27.6,27.6,42.7,74.54,44.9,139.54c2.12,62.76-8.42,121.15-11.7,137.55
	c-15.37,76.86-61.47,128.73-137.02,154.2C4562.49,3978.59,4502.39,3980.05,4451.75,3980.05z"/>
<path d="M2375,5980c-88.32,0-163.07-31.58-216.17-91.32c-58.94-66.31-88.83-163.44-88.83-288.68c0-108.55,28.2-226,75.43-314.17
	c26.65-49.75,58.38-89.21,94.3-117.28c41.22-32.22,86.73-48.55,135.27-48.55c54.19,0,104.52,17.61,149.57,52.33
	c39.08,30.12,73.36,72.53,101.91,126.05c49.17,92.2,78.53,214.3,78.53,326.62c0,65.49-6.54,119.38-19.99,164.77
	c-13.85,46.75-34.72,83.61-63.8,112.69C2568.31,5955.36,2490.08,5980,2375,5980z M2375,5180c-86.62,0-143.89,72.96-176.68,134.17
	c-42.78,79.85-68.32,186.71-68.32,285.83c0,110.11,24.79,193.82,73.67,248.82c41.39,46.57,100.64,71.18,171.33,71.18
	c98.12,0,162.88-19.05,203.79-59.96c44.55-44.55,66.21-121.44,66.21-235.04c0-102.93-26.72-214.47-71.47-298.38
	C2537.86,5259.73,2474.46,5180,2375,5180z"/>
<path d="M350,4980c-48.03,0-91.54-8.81-129.33-26.18c-38.61-17.75-71.51-44.52-97.8-79.57C71.2,4805.35,45,4704.67,45,4575
	c0-112.53,15.79-201.15,46.92-263.42c18.43-36.87,42.63-65.46,71.91-84.98c31.45-20.97,68.86-31.6,111.17-31.6
	c55.1,0,115.16,22.46,183.59,68.67c47.83,32.3,90.31,69.85,123.49,100.12C574.05,4302.18,570,4213.93,570,4100
	c0-16.57,13.43-30,30-30s30,13.43,30,30c0,213.29,14.7,289.23,23.46,315.51c2.07,6.2,3.19,11.26,3.55,15.92
	c0.99,13.04-4.5,24.77-14.69,31.36c-6.28,4.07-19.42,9.44-36.88-0.29c-4.27-2.38-9.06-5.76-15.05-10.64
	c-9.33-7.59-20.82-18.14-35.36-31.48C492.05,4362.58,374.83,4255,275,4255c-59.02,0-101.35,27.29-129.42,83.42
	C118.65,4392.27,105,4471.87,105,4575c0,116.4,22.16,204.97,65.88,263.25C211.56,4892.5,271.83,4920,350,4920
	c59.99,0,115.5-9.55,160.52-27.63c39.55-15.88,69.61-38.03,84.65-62.36c13.31-21.54,14.32-43.95,3-66.6
	c-7.41-14.82-1.4-32.84,13.42-40.25c14.82-7.41,32.84-1.4,40.25,13.42c20.65,41.3,18.65,85.69-5.63,124.98
	c-22.04,35.66-61.23,65.57-113.33,86.49C480.82,4968.95,417.58,4980,350,4980z"/>
<path d="M1300,4980c-58.7,0-117.12-28.88-160.28-79.23c-44.96-52.45-69.72-123.76-69.72-200.77c0-42.81,17.99-86.77,52.03-127.13
	c30.79-36.51,72.43-67.68,120.41-90.15c50.19-23.51,103.09-35.33,152.97-34.21c56.94,1.29,108.39,19.77,148.79,53.44
	c12.73,10.61,14.45,29.52,3.84,42.25c-10.61,12.73-29.52,14.45-42.25,3.84c-69.34-57.79-168.36-43.57-237.91-11
	c-39.6,18.55-75.12,45.01-99.99,74.5c-24.79,29.39-37.9,59.98-37.9,88.45c0,62.7,19.63,120.14,55.28,161.73
	c31.74,37.03,73.56,58.27,114.72,58.27c108.79,0,192.18-11.62,254.95-35.53c57.59-21.94,96.26-53.96,118.22-97.88
	c7.41-14.82,25.43-20.83,40.25-13.42c14.82,7.41,20.83,25.43,13.42,40.25c-14.37,28.75-34.38,54.04-59.46,75.16
	c-24.85,20.93-55.49,38.41-91.07,51.96C1506.6,4967.09,1416.21,4980,1300,4980z"/>
<path d="M1375,4480c-57.99,0-107.7-15.24-143.74-44.07c-40.08-32.06-61.26-79.06-61.26-135.93c0-56.38,20.88-108.3,58.79-146.21
	c37.91-37.91,89.84-58.79,146.21-58.79s108.3,20.88,146.21,58.79S1580,4243.62,1580,4300c0,45.43-21.84,91.15-59.93,125.42
	C1480.96,4460.62,1429.44,4480,1375,4480z M1375,4155c-84.02,0-145,60.98-145,145c0,108.31,101.4,120,145,120
	c85.45,0,145-63.24,145-120C1520,4215.98,1459.02,4155,1375,4155z"/>
<path d="M4400,4980c-62.88,0-157.89,0-236.64-44.51c-44.57-25.19-79.24-61.9-103.04-109.09c-26.76-53.06-40.32-120.82-40.32-201.4
	c0-131.84,28.32-252.5,81.9-348.94c47.96-86.33,114.36-149.87,186.96-178.91c15.38-6.15,32.84,1.33,39,16.71
	c6.15,15.38-1.33,32.84-16.71,39c-59.83,23.93-115.51,78.03-156.79,152.34c-48.64,87.55-74.35,198.14-74.35,319.81
	c0,130.85,36.93,215.32,112.89,258.26c65,36.74,147.14,36.74,207.11,36.74c103.27,0,170-56.92,170-145c0-82.41-59.58-170-170-170
	c-46.65,0-90.35-16.01-123.06-45.08c-37.25-33.11-56.94-79.77-56.94-134.92c0-56.86,21.18-103.87,61.26-135.93
	c36.04-28.83,85.75-44.07,143.74-44.07c59.37,0,116.3,29.8,152.28,79.72c14.35,19.91,24.47,42.2,29.28,64.45
	c5.23,24.24,4.16,48.55-3.09,70.31c-5.24,15.72-22.22,24.21-37.95,18.97c-15.72-5.24-24.21-22.23-18.97-37.95
	c7.97-23.9,1.26-54.07-17.94-80.71c-24.74-34.32-63.46-54.81-103.6-54.81c-43.6,0-145,11.69-145,120c0,82.9,60.27,120,120,120
	c66.28,0,126.29,25.65,168.99,72.23c38.77,42.3,61.01,99.8,61.01,157.77c0,58.02-22.35,110.3-62.94,147.2
	C4525.46,4960.01,4467.69,4980,4400,4980z"/>
<path d="M5400,4980c-106.08,0-185.94-17.87-244.14-54.64C5082.3,4878.91,5045,4803.08,5045,4700
	c0-130.43,43.31-257.94,121.94-359.04c8.66-11.13,17.61-21.74,26.79-31.79c-0.46-20.13,0.88-40.95,4.05-62.07
	c10.04-66.79,36.94-132.33,77.8-189.53c9.63-13.48,28.37-16.6,41.85-6.97c13.48,9.63,16.6,28.37,6.97,41.85
	c-33.79,47.31-57.28,103.31-66.45,158.27c47.93-35.57,97.79-55.71,142.04-55.71c57.99,0,107.7,15.24,143.74,44.07
	c40.08,32.06,61.26,79.06,61.26,135.93c0,45.94-22.3,86.86-62.8,115.2c-36.66,25.66-87.17,39.8-142.2,39.8
	c-80.82,0-144.34-36.92-178.83-103.96c-6-11.66-11.04-24.16-15.1-37.35C5140.8,4477.5,5105,4587.5,5105,4700
	c0,82.28,27.12,139.41,82.89,174.64c48.33,30.53,117.71,45.36,212.11,45.36c84.13,0,159.35-34.1,211.81-96.02
	c47.58-56.17,69.49-128.71,58.6-194.04c-2.72-16.34,8.32-31.8,24.66-34.52c16.34-2.73,31.8,8.32,34.52,24.66
	c6.85,41.07,3.73,85.13-9,127.42c-12.5,41.52-34.29,81.38-63,115.28c-30.42,35.91-67.32,64.34-109.68,84.52
	C5502.33,4968.99,5452.57,4980,5400,4980z M5255.29,4331.78c2.85,24.84,9.31,47.53,19.23,66.81
	c24.04,46.72,67.43,71.41,125.48,71.41c42.84,0,81.13-10.28,107.8-28.95c16.97-11.88,37.2-32.98,37.2-66.05
	c0-108.31-101.4-120-145-120c-25,0-56.06,10.97-87.44,30.88C5293.06,4298.25,5273.75,4313.75,5255.29,4331.78z"/>
<path d="M6400,4980c-132.71,0-216.27-13.72-270.96-44.48c-30.06-16.91-51.43-38.89-65.34-67.22c-12.58-25.61-18.7-56.13-18.7-93.3
	c0-35.97,6.7-72.73,19.36-106.29c14.11-37.39,35.2-70.69,62.68-98.98c30.33-31.22,67.79-55.55,111.34-72.33
	c47.2-18.18,101.58-27.39,161.62-27.39c85.37,0,145-59.63,145-145c0-28.45-14.6-57.91-40.07-80.83
	c-28.07-25.26-65.33-39.17-104.93-39.17c-63.23,0-111.69,35.46-148.17,108.42c-7.41,14.82-25.43,20.83-40.25,13.42
	c-14.82-7.41-20.83-25.43-13.42-40.25c18.98-37.96,40.66-67.49,66.28-90.26c38.32-34.06,83.92-51.33,135.55-51.33
	c54.45,0,105.96,19.38,145.07,54.58c38.09,34.28,59.93,79.99,59.93,125.42c0,57.59-20.92,109.97-58.92,147.5
	c-37.54,37.08-89.42,57.5-146.08,57.5c-217.74,0-295,131.98-295,245c0,55.51,15.49,86.87,53.46,108.23
	c44.6,25.09,121.35,36.77,241.54,36.77c77.82,0,142.68-7.41,192.79-22.03c42.92-12.52,74.45-30.46,91.18-51.89
	c14.21-18.2,18.11-39.07,11.92-63.81c-4.02-16.07,5.75-32.36,21.83-36.38c16.08-4.02,32.36,5.75,36.38,21.83
	c10.66,42.63,2.76,82.5-22.84,115.28c-24.88,31.86-65.81,56.27-121.67,72.57C6554.02,4971.78,6483.51,4980,6400,4980z"/>
<path d="M6299.98,4405.01c-4.51,0-9.09-1.02-13.39-3.17c-56-28-135.42-107.42-163.42-163.42c-7.41-14.82-1.4-32.84,13.42-40.25
	c14.82-7.41,32.84-1.4,40.25,13.42c22.13,44.25,92.33,114.46,136.58,136.58c14.82,7.41,20.83,25.43,13.42,40.25
	C6321.58,4398.93,6310.98,4405.01,6299.98,4405.01z"/>
<path d="M400,5980c-75.3,0-160.65,0-227.37-20.02c-39.42-11.82-68.97-29.27-90.36-53.33C57.54,5878.83,45,5842.95,45,5800
	c0-52.47,24.43-117.79,72.6-194.13c39.85-63.15,95.4-132.84,160.65-201.53c19.2-20.22,38.9-39.96,58.68-58.87
	C263.97,5287.2,188.16,5230,100,5230c-16.57,0-30-13.43-30-30s13.43-30,30-30c51.6,0,102.92,14.82,156.9,45.31
	c44.29,25.02,85.16,57.39,124.67,89.02c26.08-23.12,51.78-44.3,76.16-62.67c28.65-21.59,54.51-38.6,76.86-50.55
	c26.59-14.21,47.98-21.12,65.41-21.12c17.51,0,49.88,7.52,70.04,57.92c10.45,26.13,16.21,60.61,16.21,97.08s-5.76,70.95-16.21,97.08
	c-20.16,50.4-52.54,57.92-70.04,57.92c-80.41,0-149.68-45.53-215.65-96.84c-21.06,19.94-42.1,40.93-62.6,62.5
	c-62.58,65.88-115.63,132.35-153.41,192.22C126.9,5703.56,105,5759.62,105,5800c0,111.39,122.27,120,295,120
	c94.72,0,153.92-7.74,197.95-25.87c47.26-19.46,77.85-51.93,99.19-105.28c6.15-15.38,23.61-22.87,39-16.71
	c15.38,6.15,22.87,23.61,16.71,39c-13.9,34.75-31.4,62.82-53.49,85.82c-21.72,22.61-47.42,39.83-78.57,52.66
	C569.07,5970.91,503.04,5980,400,5980z M429.4,5342.16C485.82,5385.4,540.99,5420,600,5420c2.04,0,8.23-4.94,14.33-20.2
	c7.57-18.93,11.92-46.2,11.92-74.8s-4.34-55.86-11.92-74.8c-6.11-15.27-12.29-20.2-14.33-20.2c-10.07,0-43.75,12.55-106.16,59.58
	C473.18,5305.15,451.49,5322.87,429.4,5342.16z"/>
<path d="M99.97,5730c-5.72,0-11.5-1.63-16.61-5.04c-13.79-9.19-17.51-27.82-8.32-41.6c41.81-62.72,26.89-145.98,12.46-226.49
	c-8.53-47.56-16.58-92.48-14.15-134.91c2.99-52.22,21.93-91.6,57.91-120.38c12.94-10.35,31.82-8.25,42.17,4.68
	c10.35,12.94,8.25,31.82-4.69,42.17c-50.42,40.34-37.34,113.33-22.19,197.86c15.76,87.91,33.62,187.54-21.59,270.36
	C119.18,5725.31,109.67,5730,99.97,5730z"/>
<path d="M375,6455c-16.57,0-30-13.43-30-30c0-13.05,4.78-61.78,12.65-140.49C363.15,6229.49,370,6161,370,6150
	c0-16.57,13.43-30,30-30s30,13.43,30,30c0,13.05-4.78,61.78-12.65,140.49C411.85,6345.51,405,6414,405,6425
	C405,6441.57,391.57,6455,375,6455z"/>
<path d="M400,6930c-7.68,0-15.36-2.93-21.21-8.79c-12.14-12.14-24.51-35.26-30.63-169.85C345.41,6690.95,345,6630.6,345,6600
	c0-16.57,13.43-30,30-30s30,13.43,30,30c0,28.01,0.35,83.48,2.73,140.18c4.6,109.99,13.34,136,15.4,140.7
	c9.77,11.79,9.13,29.29-1.91,40.33C415.36,6927.07,407.68,6930,400,6930z"/>
<path d="M1400,6200c50-25,75,100,0,100S1355.28,6222.36,1400,6200z"/>
<path d="M1400,6775c50-25,75,100,0,100S1355.28,6797.36,1400,6775z"/>
<path d="M3400,6100c25,0,50,50,50,75c0,35.36-25,50-50,50S3375,6100,3400,6100z"/>
<path d="M4325,6955c-16.57,0-30-13.43-30-30c0-48.44,0.23-219.6,3.13-388.02c1.8-104.49,4.31-189.72,7.45-253.31
	c5.67-114.61,12.05-136.02,17.58-147.09c7.41-14.82,25.43-20.83,40.25-13.42c14.63,7.31,20.67,24.97,13.7,39.67
	c-1.27,3.6-6.93,25.12-11.97,131.39c-3,63.42-5.4,147.6-7.13,250.22c-2.79,165.93-3.01,333.23-3.01,380.55
	C4355,6941.57,4341.57,6955,4325,6955z"/>
<path d="M5400,6980c-41.41,0-75.71-24.55-96.61-69.12c-2.15-4.59-4.1-9.24-5.86-13.9c-5.72,7.51-11.64,14.73-17.66,21.51
	c-24.92,28.06-63.34,61.5-104.87,61.5c-50.64,0-85.91-15.83-104.84-47.05c-19.99-32.97-18.91-79.77,3.31-143.08
	c16.99-48.41,43.7-99.64,65.17-140.81c5.85-11.22,12.65-24.27,18.56-36.17c-7.4,1.85-15.36,4.01-23.58,6.48
	c-40.18,12.05-58.39,22.84-62.41,26.85c-11.71,11.72-30.71,11.72-42.43,0c-11.72-11.72-11.72-30.71,0-42.43
	c14.81-14.81,44.28-28.9,87.59-41.9c28.02-8.41,64.75-16.89,83.62-16.89c7.96,0,15.59,3.16,21.21,8.79
	c6.44,6.44,13.25,18.22,9.14,37.76c-1.44,6.83-4.14,14.73-8.51,24.86c-7.06,16.36-17.69,36.76-30.01,60.38
	c-20.58,39.47-46.19,88.58-61.75,132.94c-20.56,58.6-14.23,82.86-8.62,92.11c7.31,12.05,25.32,18.16,53.54,18.16
	c13.75,0,34.94-14.08,56.68-37.67c18.25-19.8,36.3-45.69,49.6-71.13c-0.13-3.62-0.17-6.77-0.17-9.35c0-17.24,1.66-32.68,4.8-44.65
	c8.81-33.57,30.27-37.2,39.09-37.2c7.96,0,15.59,3.16,21.21,8.79c16.81,16.8,16.87,44.53,0.21,84.77c-1.34,3.23-2.76,6.5-4.27,9.79
	c2.78,29.34,10.74,56.16,21.87,73.62c13.16,20.65,26.84,23.04,35.98,23.04c80.29,0,133.1-79.94,163.27-147
	c38.98-86.66,56.73-189.3,56.73-248c0-14.38,0.32-29.44,0.71-45.24c-16.25,2.31-32.42,4.16-48.21,5.28
	c-65.95,4.71-112.33-4.7-141.8-28.74c-16.28-13.28-35.69-38.17-35.69-81.31c0-40.84,18.5-90.66,49.49-133.27
	c15.68-21.57,57.37-71.73,105.51-71.73c33.09,0,60.63,11.04,81.86,32.82c43.25,44.36,50.36,124.49,50.19,205.36
	c12.22-2.41,24.24-4.88,35.89-7.27c9.01-1.85,17.76-3.64,26.18-5.33c16.25-3.25,32.05,7.29,35.3,23.53
	c3.25,16.25-7.29,32.05-23.53,35.3c-8.32,1.67-16.98,3.44-25.89,5.27c-15.78,3.24-32.24,6.61-49.01,9.83
	c-0.01,0.39-0.02,0.77-0.03,1.16c-0.49,19.29-0.95,37.52-0.95,54.32c0,67.07-19.18,177.37-62.02,272.61
	c-23.83,52.97-52.25,95.27-84.49,125.72C5493.68,6960.93,5448.76,6980,5400,6980z M5550,6230c-8.81,0-32.08,12.77-56.99,47.02
	c-23.45,32.24-38.01,69.78-38.01,97.98c0,21.25,7.77,30.05,13.62,34.82c11.57,9.43,38.24,19.75,99.61,15.38
	c17.33-1.24,35.44-3.47,53.75-6.28c0.64-70.74-3.42-143.8-33.07-174.21C5579.12,6234.67,5566.76,6230,5550,6230z"/>
<path d="M2400,755c-16.57,0-30-13.43-30-30s13.43-30,30-30c38.31,0,88.19-13.43,140.44-37.81c44.7-20.86,79.14-44.2,88.35-53.4
	c11.72-11.72,30.71-11.72,42.43,0s11.72,30.71,0,42.43c-17.84,17.84-61.18,44.71-105.4,65.35C2523.35,731.38,2460.11,755,2400,755z"
	/>
<path d="M75.02,805.01c-11.01,0-21.6-6.08-26.86-16.59c-7.41-14.82-1.4-32.84,13.42-40.25c65.07-32.53,192.35-122.23,332.18-234.09
	c129.28-103.43,234.67-198.3,256.28-230.72c9.19-13.79,27.82-17.51,41.6-8.32c13.79,9.19,17.51,27.82,8.32,41.6
	C669.06,363,535.89,477.21,431.24,560.93C286.19,676.97,158.03,767.03,88.42,801.83C84.11,803.99,79.53,805.01,75.02,805.01z"/>
<path d="M396,980c-115.51,0-199.68-25.66-250.18-76.26c-21.71-21.75-36.71-47.6-44.59-76.85C94.94,803.56,94.98,784.25,95,776l0-1
	c0-16.57,13.43-30,30-30s30,13.43,30,30l0,1.12c-0.03,12.81-0.1,51.78,33.29,85.23C226.58,899.72,298.4,920,396,920
	c120.8,0,188.85-38.66,227.53-129.28C662.23,700.09,670,562.55,670,370c0-10.76-7.71-65.04-43.3-114.96
	C578.89,188,501.27,154,396,154c-59.28,0-108.83,9.63-145.75,28.1c33.54,13.75,82.58,34.4,120.65,71.38
	c29.08,28.24,35.97,73.31,18,117.62c-9.15,22.56-24.3,43.1-42.66,57.84C325.01,445.99,300.38,455,275,455
	c-52.37,0-175.66-24.54-180.88-25.58c-16.25-3.25-26.78-19.05-23.53-35.3c3.25-16.25,19.06-26.79,35.3-23.54
	C139.85,377.37,236.45,395,275,395c27.11,0,49.22-24.08,58.3-46.46c6.74-16.63,9.18-39.02-4.2-52.02
	c-30.81-29.92-73.32-47.32-104.36-60.03c-11.97-4.9-22.31-9.13-30.56-13.48c-6.68-3.52-24.41-12.86-27.45-32.51
	c-1.98-12.76,3.14-25.31,14.04-34.41C230.1,114.89,302.51,94,396,94c67.85,0,127.45,12.85,177.15,38.2
	c41.34,21.09,75.8,50.7,102.41,88.01C720.22,282.85,730,349.58,730,370c0,200.12-8.58,344.25-51.28,444.28
	c-24.04,56.3-58,96.96-103.83,124.3C528.15,966.45,469.64,980,396,980z"/>
<path d="M2498,2980c-16.57,0-30-13.43-30-30s13.43-30,30-30c58.51,0,108-21.7,147.07-64.49c57.12-62.55,85.18-166.4,75.05-277.8
	c-21.71-238.86-115.54-346.91-323.84-372.95c-16.44-2.06-28.1-17.05-26.05-33.49c2.05-16.44,17.04-28.1,33.49-26.05
	c55.21,6.9,102.19,18.86,143.61,36.56c45.51,19.44,83.14,45.22,115.04,78.8c66.35,69.84,104.78,171.8,117.5,311.7
	c5.68,62.49,0.71,124.65-14.37,179.75c-15.48,56.58-41.81,106.35-76.13,143.94C2639.18,2950.94,2573,2980,2498,2980z"/>
<path d="M2400,2955c-16.57,0-30-13.43-30-30c0-25.79,1.59-76.39,3.61-140.44c2.98-94.78,6.69-212.73,7.39-315.93
	c1.05-154.15-5.48-197.2-9.46-209.14c-5.24-15.72,3.26-32.71,18.97-37.95c15.71-5.24,32.71,3.25,37.95,18.97
	c6.43,19.28,13.66,62.68,12.53,228.53c-0.71,103.94-4.43,222.3-7.42,317.41c-2,63.53-3.58,113.71-3.58,138.56
	C2430,2941.57,2416.57,2955,2400,2955z"/>
<path d="M2375,2980c-55.12,0-104.01-7.39-145.3-21.96c-43.14-15.23-79.43-38.73-107.86-69.86c-33.25-36.41-56.46-84.1-69.01-141.76
	c-12.08-55.54-14.68-122.55-7.72-199.15c6.21-68.34,17-125.3,32.97-174.14c14.66-44.81,33.37-81.73,57.21-112.88
	c45.36-59.26,100.81-85.85,149.72-109.32c14.94-7.16,32.86-0.86,40.02,14.08c7.17,14.94,0.86,32.86-14.08,40.02
	c-93.82,45-182.44,87.5-206.1,347.67c-12.5,137.54,8.11,236.79,61.28,295.01c44.41,48.63,112.73,72.27,208.85,72.27
	c16.57,0,30,13.43,30,30S2391.57,2980,2375,2980z"/>
<path d="M1524.97,2930.01c-14.01,0-26.53-9.86-29.39-24.12c-19.05-95.25-11.26-300.84-2.34-469.3c0.94-17.78,1.75-33.13,1.75-36.59
	c0-7.96,3.16-15.59,8.79-21.21c15.78-15.78,51.85-31.7,109.4-56.36c30.46-13.05,81.44-34.9,90.63-43.67
	c11.72-11.71,30.7-11.7,42.41,0.02c11.72,11.72,11.7,30.73-0.02,42.44c-15.78,15.78-51.85,31.7-109.4,56.36
	c-25.17,10.79-64.37,27.59-82.4,38.04c-0.3,6.02-0.71,13.88-1.25,24.14c-5.13,96.9-18.76,354.29,1.26,454.36
	c3.25,16.25-7.29,32.05-23.53,35.3C1528.9,2929.81,1526.92,2930.01,1524.97,2930.01z"/>
<path d="M1749.96,2380c-14.4,0-27.11-10.4-29.56-25.07c-10.21-61.26-51.11-118.51-115.17-161.22
	C1544.5,2153.22,1469.69,2130,1400,2130c-88.92,0-245.63,26.41-296.15,203.24c-4.55,15.93-21.16,25.16-37.09,20.6
	c-15.93-4.55-25.16-21.16-20.6-37.09c12.97-45.4,33.01-85.54,59.56-119.29c24.2-30.76,54.02-56.52,88.63-76.55
	c72.68-42.08,151.95-50.91,205.66-50.91c81.24,0,168.18,26.89,238.52,73.79c78.01,52.01,128.11,123.49,141.08,201.28
	c2.72,16.34-8.32,31.8-24.66,34.52C1753.26,2379.87,1751.6,2380,1749.96,2380z"/>
<path d="M1400,2980c-95.94,0-174.05-14.73-232.17-43.79c-67.23-33.62-108.36-85.87-122.25-155.32c-1.76-8.81,0.52-17.95,6.22-24.9
	c5.7-6.95,14.21-10.98,23.2-10.98c22.59,0,63.4-5.87,101.55-14.61c42.33-9.69,64.1-18.81,72.95-23.76
	c1.9-8.82,5.03-30.92,5.72-82.44c0.62-45.79-0.8-103.38-4.1-166.55c-6.61-126.69-19.05-241.57-29.58-273.16
	c-5.24-15.72,3.26-32.71,18.97-37.95c15.72-5.24,32.71,3.25,37.95,18.97c14.5,43.5,26.9,178.16,32.75,292.33
	c3.34,65.14,4.7,124.32,3.94,171.17c-1.23,75.83-7.77,98.31-13.32,109.41c-1.44,2.88-3.34,5.52-5.62,7.8
	c-5.83,5.83-23.58,23.58-105.09,42.39c-26.11,6.03-53.12,10.76-76.44,13.56C1148.71,2880.4,1244.45,2920,1400,2920
	c77.74,0,145.31-13.93,195.4-40.3c56.42-29.69,90.06-74.99,100.01-134.63c2.72-16.34,18.18-27.38,34.52-24.66
	c16.34,2.72,27.38,18.18,24.66,34.52c-6.81,40.86-22.32,77.18-46.09,107.94c-21.7,28.08-50.35,51.6-85.16,69.92
	C1564.68,2963.68,1487.44,2980,1400,2980z"/>
<path d="M6525,980c-7.46,0-14.66-2.78-20.18-7.8c-0.69-0.63-69.81-63.5-138.03-128.62c-40.25-38.42-72.37-70.15-95.5-94.32
	c-44.16-46.17-51.29-59.7-51.29-74.25c0-16.57,13.43-30,30-30c13.78,0,25.38,9.28,28.9,21.94c4.47,6.92,27.05,36.05,138.49,141.98
	c50.44,47.95,99.7,93.21,119.12,110.97c64.88-1.28,99.09-13.85,120.33-43.58C6683.23,839.36,6695,769.57,6695,650
	c0-110.45-71.03-239.94-190-346.39C6383.5,194.9,6232.1,130,6100,130c-16.57,0-30-13.43-30-30s13.43-30,30-30
	c76.54,0,156.05,17.94,236.32,53.33c73.73,32.51,145.89,79.38,208.68,135.56c62.31,55.75,114.44,119.77,150.75,185.13
	C6734.51,513.79,6755,585.01,6755,650c0,65.55-3.47,117.09-10.61,157.56c-7.79,44.16-20.46,78.06-38.73,103.63
	c-18.93,26.5-44,44.67-76.64,55.55C6601.88,975.79,6568.83,980,6525,980z"/>
<path d="M6674.97,930.01c-14.01,0-26.53-9.86-29.38-24.12c-6.93-34.64-80.82-143.15-267.44-343.81
	c-143.52-154.32-265.26-268.78-287.98-283.72c-11.74-4.07-20.17-15.23-20.17-28.35c0-16.57,13.43-30,30-30
	c12.73,0,22.65,5.92,50.54,30.16c17.12,14.88,40.34,36.4,67.15,62.22c57.77,55.65,127.65,126.81,191.71,195.24
	c76.99,82.23,143.45,158.1,192.2,219.41c83.1,104.48,98.48,145.4,102.81,167.09c3.25,16.25-7.29,32.05-23.53,35.3
	C6678.9,929.81,6676.92,930.01,6674.97,930.01z"/>
<path d="M3450,4755c-81.52,0-157.32-27.26-219.21-78.83c-62.14-51.79-108.7-127.15-134.64-217.93c-4.55-15.93,4.67-32.54,20.6-37.09
	c15.93-4.56,32.54,4.67,37.09,20.6C3199.15,4600.33,3309.86,4695,3450,4695c85.19,0,128.38-40.8,128.79-41.21
	c11.71-11.72,30.71-11.72,42.43,0c11.72,11.72,11.72,30.71,0,42.43C3618.81,4698.61,3561.15,4755,3450,4755z"/>
<path d="M3350,4980c-99.86,0-178.82-23.33-234.7-69.34c-63.24-52.08-95.3-131.37-95.3-235.66c0-81.58,23.32-163.01,69.3-242.04
	c39.67-68.17,94.58-132.17,163.19-190.23c60.37-51.08,128.25-94.6,196.31-125.85c66.8-30.67,127.72-46.88,176.19-46.88
	c16.57,0,30,13.43,30,30s-13.43,30-30,30c-39.32,0-93,14.7-151.15,41.4c-63.18,29.01-126.32,69.51-182.59,117.12
	C3212.36,4355.29,3080,4494.27,3080,4675c0,85.5,24.71,149.21,73.45,189.34c44.85,36.93,110.98,55.66,196.55,55.66
	c75.82,0,163.72-53.19,209.01-126.47c18.93-30.64,45.95-91.53,14.16-155.12c-7.41-14.82-1.4-32.84,13.42-40.25
	c14.82-7.41,32.84-1.4,40.25,13.42c17.4,34.8,24.1,72.1,19.91,110.86c-3.76,34.78-16.11,69.31-36.7,102.63
	C3553.67,4916.29,3446.74,4980,3350,4980z"/>
<path d="M2650.04,4980c-1.24,0-2.5-0.08-3.76-0.23c-109-13.63-250.03-56.44-359.3-109.08c-62.89-30.3-113.15-62.43-149.39-95.5
	c-44.85-40.93-67.59-83.05-67.59-125.18c0-44.55,40.35-91.69,123.35-144.11c62.11-39.23,132.78-71.22,172.16-84.35
	c8.78-2.93,18.43-1.64,26.13,3.5c29.42,19.62,85.92,54.68,140.44,85.33c32.64,18.35,56.51,30.6,73.84,38.79
	c-15.6-51.53-15.84-116.77-14.02-156.77c1.57-34.49,5.5-69.08,11.08-97.4c8.78-44.59,18.4-58.8,25.8-66.2
	c11.72-11.72,30.71-11.72,42.43,0c11.34,11.34,11.7,29.5,1.09,41.27c-6.27,10.6-18.26,62.46-20.74,131.88
	c-2.58,72.11,6.17,130.58,23.39,156.42c5.21,7.81,8.44,14.48,10.16,20.99c3.58,13.49,0.4,26.46-8.72,35.58
	c-19.05,19.05-48.78,8.87-75.15-2.17c-21.28-8.91-49.23-22.86-83.08-41.48c-51.31-28.23-109.69-63.7-147.16-88.01
	c-38.42,14.51-96.48,42.31-145.62,73.34c-70.41,44.47-95.4,78.1-95.4,93.39c0,30.6,26.12,60.86,48.04,80.86
	c31.48,28.73,78.16,58.39,134.98,85.77c103.89,50.05,237.63,90.72,340.7,103.6c16.44,2.06,28.1,17.05,26.05,33.49
	C2677.87,4968.9,2664.95,4980,2650.04,4980z"/>
<path d="M2377,4480c-57.99,0-107.7-15.24-143.74-44.07c-40.08-32.06-61.26-79.06-61.26-135.93c0-56.38,20.88-108.3,58.79-146.21
	S2320.62,4095,2377,4095c54.55,0,103.12,25.47,136.76,71.73c27.07,37.23,43.24,87.05,43.24,133.27c0,46.65-16.01,90.35-45.08,123.06
	C2478.81,4460.31,2432.15,4480,2377,4480z M2377,4155c-84.02,0-145,60.98-145,145c0,108.31,101.4,120,145,120
	c82.9,0,120-60.27,120-120C2497,4241.52,2458.86,4155,2377,4155z"/>
<path d="M1325,5980c-87.4,0-161.23-24.18-213.5-69.92c-29.44-25.76-52.14-58.26-67.47-96.59c-15.94-39.85-24.02-86.44-24.02-138.49
	c0-148.24,42.28-279.02,122.27-378.21c42.41-52.59,95.27-96.26,157.09-129.8c64.25-34.85,138.63-58.96,221.07-71.64
	c16.37-2.52,31.69,8.71,34.21,25.09c2.52,16.38-8.71,31.69-25.09,34.21C1243.86,5198.61,1080,5388.27,1080,5675
	c0,202.5,133.23,245,245,245c39.22,0,78.65-10.01,114.29-28.42c-44.05-12.21-90.97-30.75-129.91-61.91
	c-28.41-22.73-50.33-50.57-65.15-82.75C1228.15,5712,1220,5670.98,1220,5625c0-44.39,20.76-84.99,58.46-114.31
	c33.25-25.86,77.55-40.69,121.54-40.69c51,0,105.74,18.68,146.42,49.97c38.13,29.33,83.58,84.37,83.58,180.03
	c0,69.08-33.07,139.7-90.73,193.76c-28.34,26.57-60.8,47.58-96.48,62.45C1404.9,5972,1365.27,5980,1325,5980z M1400,5530
	c-30.91,0-61.78,10.23-84.71,28.06c-16.1,12.52-35.29,34.3-35.29,66.94c0,153.05,107,196.49,223.34,220.07
	c42.45-41.99,66.66-94.5,66.66-145.07c0-57.19-20.24-101.76-60.17-132.47C1473.86,5539.86,1429.51,5530,1400,5530z"/>
<path d="M2275.03,6955c-9.92,0-19.62-4.91-25.34-13.9l-175-275c-8.9-13.98-4.77-32.52,9.2-41.42c13.98-8.9,32.52-4.77,41.42,9.2
	l175,275c8.9,13.98,4.77,32.52-9.2,41.42C2286.11,6953.49,2280.54,6955,2275.03,6955z"/>
<path d="M2150,6955c-16.57,0-30-13.43-30-30c0-16.31,13.01-29.57,29.22-29.99c5.32-0.92,28.33-9.69,69.53-38.79
	c40.95-28.93,83.67-66.85,120.28-106.78c23.53-25.66,48.54-56.34,71.5-91.29c-79.46-61.65-146.16-146.83-189.45-242.53
	c-21.11-46.67-35.76-94.51-42.35-138.35c-6.94-46.16-5.15-86.43,5.33-119.68c8.46-26.83,22.35-48.07,41.29-63.13
	c20.41-16.23,45.52-24.46,74.65-24.46c51.82,0,118.02,6.24,170.41,54.89c56.92,52.85,84.59,142.84,84.59,275.11
	c0,73.78-18.39,148.43-54.66,221.88c-29.72,60.19-70.82,118.59-122.15,173.59c-40.32,43.2-87.02,83.83-131.5,114.41
	C2216.74,6930.46,2175.66,6955,2150,6955z M2300,6130c-30.25,0-48.9,14.5-58.72,45.63c-15.94,50.56-2.74,133.05,34.46,215.26
	c38.22,84.48,96.33,159.79,165.5,215.09c31.39-60.24,53.76-129.86,53.76-205.98c0-113.07-22.01-190.84-65.41-231.14
	C2392.71,6134.62,2343.39,6130,2300,6130z"/>
<path d="M6125,980c-7.68,0-15.36-2.93-21.21-8.79c-11.56-11.56-11.71-30.21-0.46-41.96c7.53-9.57,33.06-64.92,66.86-159.33
	C6202.89,678.58,6220,615.3,6220,600c0-16.57,13.43-30,30-30s30,13.43,30,30c0,37.94-38.39,148.69-54.9,194.54
	c-14.55,40.42-29.63,79.16-42.45,109.08c-20.59,48.05-29.98,61.14-36.44,67.6C6140.36,977.07,6132.68,980,6125,980z"/>
</svg>
